<svg xmlns="http://www.w3.org/2000/svg" width="368" height="200" fill="none" viewBox="0 0 368 200"><g fill="#141414" fill-rule="evenodd" clip-path="url(#a)" clip-rule="evenodd"><path d="M89.957 3.027c.27-.387.66-.246.417-1.918-.908-2.739.249.514.141.049-.134.808-.63.414-.933.37.093.363.219.948.375 1.499M32.261 170.606c-2.1-3.492-3.814-7.332-5.496-10.758-.894 1.38-3.457 16.479-6.998 40.152h7.66c2.32-17.378 4.046-28.155 4.834-29.394M25.701 160.59c-1.698-3.242-3.276-6.329-4.873-8.674-.869 1.257-3.97 19.764-8.234 48.084h6.924c3.099-23.246 5.351-38.079 6.183-39.41"/><path d="M20.064 150.974a352 352 0 0 0-4.147-5.816c-1.598 9.239-3.216 18.356-4.769 27.417a7198 7198 0 0 0-4.656 27.405l.102.019h6.226c2.32-16.103 4.784-32.5 7.244-49.026zM15.356 144.2a166 166 0 0 0-3.42-5.201c-2.058 10.143-4.113 20.174-6.09 30.014A6531 6531 0 0 0 0 198.411v.395c1.794.338 3.638.674 5.532.98 1.544-9.121 3.177-18.385 4.825-27.73 1.619-9.187 3.343-18.463 4.999-27.856M11.395 138.291c-1.023-1.528-1.828-3.069-2.54-4.706-2.504 10.906-5.037 21.716-7.381 32.356L0 172.631v21.557c1.673-8.416 3.41-16.954 5.164-25.58a7988 7988 0 0 1 6.233-30.316zM8.333 132.967c-.867-1.372-1.646-2.675-2.332-4.109C3.984 137.03 1.974 145.133 0 153.155v16.184l.848-3.758a5050 5050 0 0 1 7.485-32.613zM5.616 128.261c-.686-1.133-1.155-2.464-1.622-3.787A6448 6448 0 0 0 0 139.506v11.323c1.86-7.441 3.747-14.969 5.616-22.567zM3.493 124.118c-.465-1.151-.885-2.331-1.183-3.471L0 128.865v8.368a5980 5980 0 0 1 3.493-13.115M2.12 119.744a54 54 0 0 1-.925-3.124L0 120.702v6.565zM1.113 116.027c-.214-1.006-.31-2.018-.446-2.995L0 115.246v4.558zM.612 112.663c-.095-.963-.031-2.043.068-3.069L0 111.785v2.899zM.72 108.89c.01-.815.18-1.766.351-2.774L0 109.553v1.646zM1.088 105.859c.161-.859.432-1.685.745-2.622L0 109.13v.196l1.088-3.467z"/><path d="M2.01 102.683c.38-.815.798-1.707 1.09-2.404-1.03 3.337-2.066 6.675-3.1 10.005v-1.135a1147 1147 0 0 0 2.01-6.466M3.422 99.748c.444-.775 1.034-1.646 1.622-2.468C3.36 102.79 1.672 108.297 0 113.79v-2.951c1.144-3.696 2.29-7.399 3.422-11.09zM91.233 200c-4.073-3.957-7.945-7.639-11.618-11.396-2.261 3.714-4.625 7.546-6.983 11.396zM77.518 186.705c-4.205-4.417-8.106-8.079-11.777-11.462a463 463 0 0 0-12.045 17.408c1.813 2.22 3.663 4.713 5.6 7.35h9.908a880 880 0 0 1 8.314-13.296M64.022 173.432c-3.637-3.246-6.84-6.332-9.95-9.301-3.636 4.872-7.366 10.068-11.003 15.194 2.776 3.548 5.841 7.177 8.993 11.186 4.008-5.794 7.845-11.41 11.96-17.079M52.565 162.765c-2.868-2.511-5.617-5.06-8.192-7.428-3.223 4.268-6.566 8.413-9.952 12.835a276 276 0 0 1 7.326 9.438c3.61-4.976 7.26-10.109 10.82-14.845zM35.438 146.627c-1.974-1.955-3.917-3.699-5.793-5.385-2.66 3.149-5.567 6.613-8.22 9.961 1.504 2.021 3.25 4.179 4.988 6.638 3.021-3.954 5.972-7.402 9.025-11.214M28.554 140.663c-1.677-1.641-3.374-3.131-4.85-4.795-2.379 2.806-4.874 5.698-7.192 8.505 1.264 1.895 2.674 3.795 4.147 5.82 2.573-3.153 5.315-6.443 7.895-9.53M22.637 134.91c-1.364-1.508-2.67-2.881-3.923-4.245a529 529 0 0 0-6.478 7.528c.999 1.564 2.179 3.149 3.415 4.894 2.317-2.777 4.769-5.558 6.987-8.177zM17.927 129.905c-1.19-1.169-2.25-2.386-3.382-3.515-1.884 2.121-3.87 4.293-5.757 6.414.795 1.527 1.723 3.028 2.576 4.642a384 384 0 0 0 6.563-7.541M14.105 125.8c-.996-1.073-1.903-2.32-2.684-3.43-1.754 1.891-3.403 3.755-5.276 5.768.77 1.358 1.548 2.641 2.372 4.035 1.841-2.055 3.744-4.186 5.59-6.373zM10.918 121.496c-.848-.988-1.576-1.925-2.336-2.892-1.626 1.764-3.231 3.578-4.636 5.123.468 1.222 1.104 2.368 1.62 3.681 1.747-1.97 3.56-3.998 5.353-5.912zM8.278 118.299c-.674-.962-1.223-2.006-1.812-2.851-1.295 1.346-2.602 2.836-3.876 4.275.379 1.117.718 2.304 1.181 3.455 1.487-1.637 2.966-3.276 4.507-4.879M6.216 114.876c-.584-.808-.932-1.741-1.276-2.608a229 229 0 0 0-3.393 3.6c.215 1.026.55 2.036.762 3.246 1.271-1.376 2.659-2.924 3.908-4.238zM4.687 111.893c-.263-.904-.568-1.664-.831-2.515-.998 1.039-1.885 2.058-2.932 3.157.139.933.274 1.939.489 2.91a296 296 0 0 1 3.274-3.551z"/><path d="M3.733 108.769c-.147-.833-.333-1.571-.363-2.452-.913.988-1.71 1.852-2.469 2.656-.098 1.04-.074 1.95-.02 2.969.888-.967 1.932-2.139 2.852-3.172zM17.176 85.869c1.153-.62 2.235-1.203 3.422-1.678-.002.17.034.272.141.261-1.26.59-2.596 1.372-3.644 1.932.004-.229.004-.295.08-.515M3.229 103.325c.155-.792.268-1.552.452-2.22a39 39 0 0 0-1.603 1.715c-.274.896-.545 1.773-.823 2.681.751-.797 1.307-1.435 1.972-2.176zM3.894 100.504c.26-.734.553-1.479.845-2.195-.465.535-.815.999-1.282 1.516-.486.86-.863 1.678-1.244 2.579a46 46 0 0 1 1.682-1.9zM9.404 91.83a20 20 0 0 1 2.117-1.926c-.188.262-.377.536-.528.756-.817.727-1.597 1.401-2.344 2.096.264-.291.416-.51.755-.927M133.11 193.455c-7.117-4.791-13.279-9.328-19.709-13.499-3.835 6.506-7.821 12.938-11.846 20.045h28.052a437 437 0 0 1 3.503-6.546M110.518 178.108c-5.656-3.986-10.946-7.804-15.841-11.303-4.107 6.111-8.173 12.2-12.222 18.665 4.753 4.4 9.618 9.298 15.177 14.055 4.263-7.491 8.694-14.483 12.886-21.417M92.334 165.174c-4.691-2.715-8.842-5.71-12.88-8.498-3.723 4.986-7.571 10.213-11.29 15.667 3.787 3.548 7.671 7.169 12.024 11.323 4.149-6.506 8.026-12.636 12.146-18.492M77.617 155.194c-3.889-2.504-7.434-5.042-10.849-7.174a287 287 0 0 0-10.526 14.041c3.179 2.792 6.567 5.517 10.224 8.645 3.579-5.211 7.4-10.389 11.15-15.512M65.14 146.981c-3.252-1.93-6.191-3.984-9.106-5.662-3.241 3.81-6.348 7.771-9.659 12.027 2.603 2.268 5.467 4.581 8.34 7.151 3.437-4.506 7-9.28 10.426-13.516M26.375 82.018a24 24 0 0 1-2.05-.276c-1.252 1.232-2.4 2.381-3.627 3.55.612.085 1.188.284 1.838.436 1.263-1.191 2.483-2.43 3.84-3.71M45.841 134.445c-2.301-1.376-4.385-2.833-6.528-4.171-2.653 3.153-5.386 6.322-8.067 9.544 1.911 1.539 3.894 3.242 6.027 4.954a766 766 0 0 1 8.568-10.327M38.118 129.846c-1.909-1.34-3.835-2.545-5.666-3.778-2.279 2.627-4.662 5.374-6.95 8.148 1.557 1.553 3.212 3.024 4.933 4.624 2.527-2.921 5.102-5.963 7.683-8.994M31.312 125.339c-1.72-1.044-3.104-2.265-4.633-3.26-2.172 2.423-4.363 4.82-6.417 7.21 1.251 1.31 2.64 2.589 4.13 4.023 2.366-2.883 4.676-5.477 6.919-7.973zM25.814 121.414c-1.432-1.003-2.734-2.02-4.101-2.806-1.898 2.055-3.892 4.193-5.908 6.598 1.09 1.132 2.234 2.238 3.51 3.525 2.095-2.372 4.328-4.949 6.5-7.317M21.23 118.177c-1.199-.951-2.349-1.752-3.335-2.674-1.738 1.881-3.531 3.832-5.262 5.664.903 1.065 1.813 2.243 2.892 3.397 1.892-2.214 3.805-4.3 5.704-6.389zM17.19 114.872c-1.053-.686-1.902-1.601-2.747-2.386a198 198 0 0 0-4.978 5.389c.883.801 1.57 1.87 2.383 2.844 1.732-1.921 3.605-3.95 5.342-5.846zM13.98 112.239c-.917-.668-1.517-1.557-2.268-2.32a218 218 0 0 0-4.246 4.544c.67.837 1.262 1.773 1.937 2.74 1.525-1.659 3.038-3.323 4.577-4.964M7.548 104.863a35 35 0 0 1-.811-2.051A776 776 0 0 0 4 105.716c.147.781.374 1.5.444 2.415 1.105-1.139 2.09-2.213 3.105-3.267zM6.485 102.576c-.077-.781-.312-1.316-.354-1.97-.736.768-1.515 1.597-2.257 2.405-.038.744.034 1.523.11 2.265.824-.904 1.645-1.823 2.501-2.7M6.245 98.04c.06-.486.239-1.202.372-1.74-.498.549-1.037 1.169-1.498 1.674-.366.76-.622 1.483-.843 2.214.655-.668 1.277-1.401 1.968-2.146zM7.5 94.367c.274-.472.698-1.18 1.269-1.884-.304.398-.684.826-.84 1.132a42 42 0 0 0-1.725 2.21c.385-.457.879-.988 1.297-1.458zM11.354 89.487a21 21 0 0 1 1.587-1.541c-.333.431-.632.84-.964 1.194-.628.583-1.26 1.214-1.817 1.719.45-.502.785-.881 1.196-1.372z"/><path d="M9.997 92.397c.087-.438.285-.91.373-1.353-.526.62-1.09 1.242-1.617 1.803-.198.513-.475 1.073-.68 1.627.607-.645 1.285-1.335 1.924-2.077M250.755 126.113c-11.603-2.442-22.265-4.849-32.307-7.139-3.87 6.24-7.82 12.2-11.52 18.595 9.741 2.71 20.488 6.204 32.388 9.761a1085 1085 0 0 1 11.44-21.217zM183.84 119.066c-8.101-1.795-15.227-3.566-22.32-4.905-3.479 4.71-7.267 9.589-11.044 14.704a1554 1554 0 0 1 21.991 6.856c3.637-5.61 7.596-11.371 11.373-16.656zM174.309 82.406c-6.451-.258-12.487-.649-18.311-.958-3.277 3.578-6.484 7.067-9.567 10.692 5.649.513 11.648 1.165 18.03 2.098 3.185-4.086 6.364-8.043 9.848-11.832M208.587 200c-8.27-4.386-16.008-8.534-23.296-12.532A698 698 0 0 0 179.058 200zM180.34 184.901c-9.495-5.049-17.861-9.916-26.046-14.272-4.294 7.428-8.693 15.416-13.07 23.389a812 812 0 0 0 8.202 5.982h23.544c2.494-5.16 4.945-10.175 7.37-15.099M150.507 168.674c-7.411-3.637-14.252-7.015-20.537-10.363-4.049 6.147-8.363 12.746-12.258 19.554 6.122 4.241 12.707 8.593 19.949 13.281 4.183-7.852 8.551-15.147 12.846-22.472M126.53 157.378c-6.123-3.131-11.702-5.869-16.992-8.484-3.647 5.183-7.494 10.545-11.362 15.999 5.08 3.459 10.641 7.273 16.498 11.285 4.018-6.768 7.894-12.754 11.856-18.802zM106.275 146.988a486 486 0 0 1-13.876-6.639c-3.489 4.47-6.993 9.188-10.501 14.034a191 191 0 0 0 13.197 8.336c3.663-5.183 7.452-10.486 11.18-15.73zM89.871 139.069c-3.973-2.245-7.777-3.902-11.55-5.543a1593 1593 0 0 1-10.117 12.765c3.569 2.002 7.3 4.326 11.062 6.908 3.484-4.777 7.124-9.564 10.605-14.13M76.669 133.066c-3.353-1.623-6.664-3.149-9.887-4.499-2.854 3.6-5.873 7.187-8.853 10.776 2.926 1.812 6.025 3.762 9.167 5.853 3.233-4.109 6.497-8.22 9.571-12.13zM55.369 123.192c-2.664-.967-4.99-2.05-7.3-3.117a716 716 0 0 0-7.45 8.509c2.098 1.353 4.139 2.81 6.642 4.093a428 428 0 0 1 8.108-9.486zM46.842 119.575c-2.244-1.062-4.27-2.12-6.264-2.903-2.314 2.511-4.456 4.956-6.851 7.671 1.825 1.187 3.705 2.334 5.647 3.648 2.545-2.851 4.936-5.658 7.468-8.416M39.585 116.281c-1.819-.855-3.469-1.744-5.181-2.485-2.175 2.327-4.335 4.61-6.27 6.914 1.412 1.04 3.072 2.037 4.708 3.106 2.323-2.57 4.546-5.06 6.741-7.535zM33.156 113.471c-1.659-.745-3.147-1.446-4.588-2.25-1.724 1.862-3.77 4.05-5.52 6.052 1.249.904 2.667 1.803 4.102 2.822 1.938-2.25 4.02-4.466 6.006-6.624M27.771 110.815c-1.384-.615-2.765-1.224-3.98-1.844-1.69 1.793-3.315 3.567-4.995 5.319 1.064.804 2.292 1.546 3.45 2.538 1.83-2.066 3.607-4.039 5.525-6.012zM23.436 108.629c-1.208-.575-2.253-1.217-3.408-1.737-1.462 1.498-3.01 3.146-4.57 4.765.963.722 1.894 1.537 2.947 2.367 1.639-1.802 3.342-3.566 5.031-5.395M19.53 106.386c-.919-.679-1.83-1.317-2.739-1.796a722 722 0 0 0-4.217 4.455c.713.767 1.509 1.479 2.348 2.238 1.56-1.675 3.107-3.271 4.608-4.898zM16.263 104.247c-.827-.449-1.61-.922-2.28-1.512-1.268 1.342-2.427 2.556-3.789 4.009.588.654 1.18 1.292 1.851 1.951 1.364-1.417 2.717-2.811 4.218-4.448M142.798 99.312c-5.4-.742-10.546-1.376-15.541-2.157-3.115 3.737-6.253 7.339-9.557 11.09 4.76 1.003 9.827 1.95 15.225 3.282 3.314-4.179 6.638-8.202 9.875-12.215zM42.584 80.075c-1.469.011-2.862.014-4.179.037-1.543 1.545-3.134 3.053-4.622 4.554 1.286-.023 2.4.192 3.808.243a187 187 0 0 1 4.995-4.835zM42.353 75.273a97 97 0 0 1-3.82.384 1342 1342 0 0 0-4.33 4.082 76 76 0 0 0 3.488-.055c1.504-1.43 3.102-2.94 4.662-4.41M298.268 200q-5.909-2.489-11.538-4.908a255 255 0 0 0-1.86 4.908h13.399zM139.9 64.05c-4.657.243-9.079.457-13.291.656-2.597 2.575-5.167 5.186-7.818 7.678 4.213.026 8.43-.033 12.965-.095 2.631-2.788 5.416-5.514 8.143-8.239zM230.33 171.38a1578 1578 0 0 0-33.063-13.082c-4.03 7.442-8.344 15.439-12.277 24.006a1198 1198 0 0 0 32.678 16.45c4.02-9.31 8.362-18.534 12.66-27.374zM163.228 144.996c-7.499-2.785-14.637-5.262-21.255-7.7a580 580 0 0 0-11.603 17.257c6.326 3.235 13.293 6.52 20.413 9.844 4.148-6.506 8.288-13.204 12.443-19.399zM117.723 129.374c-5.181-1.753-9.909-3.353-14.411-5.002-3.264 4.016-6.679 8.38-9.955 12.865 4.287 2.068 8.979 4.263 13.717 6.531 3.425-4.982 7.114-9.866 10.65-14.394zM100.741 123.576a414 414 0 0 0-12.164-3.873c-3.227 3.807-6.36 7.671-9.587 11.514 3.665 1.564 7.4 3.135 11.44 5.09 3.499-4.489 6.852-8.811 10.311-12.731M86.917 119.28a753 753 0 0 1-10.44-3.434c-2.832 3.355-5.666 6.653-8.563 10.075 3.133 1.401 6.44 2.973 9.806 4.488 3.15-3.795 6.262-7.546 9.195-11.13zM74.231 115.164c-3.047-.917-6.033-1.8-8.76-2.678-2.848 3.171-5.553 6.122-8.22 9.294 2.557 1.007 5.31 2.15 8.323 3.589 2.843-3.61 5.838-6.993 8.657-10.205M64.135 112.202c-2.771-.763-5.254-1.637-7.749-2.354a246 246 0 0 0-7.26 8.221c2.254.985 4.571 2.079 7.261 2.991 2.498-2.851 5.15-5.938 7.746-8.858zM55.058 109.421c-2.388-.642-4.636-1.199-6.758-1.818-2.24 2.441-4.544 4.842-6.67 7.232 1.942.738 4.071 1.608 6.185 2.652 2.364-2.767 4.797-5.399 7.243-8.066M47.322 107.296a90 90 0 0 1-5.811-1.793c-2.07 2.228-4.16 4.448-6.111 6.613 1.63.782 3.43 1.557 5.278 2.284 2.212-2.339 4.397-4.743 6.645-7.104zM40.24 105.28c-1.791-.542-3.382-1.154-4.92-1.637-1.903 1.907-3.776 3.861-5.629 5.757 1.364.845 2.927 1.608 4.618 2.29a545 545 0 0 1 5.933-6.41zM34.19 103.55a73 73 0 0 0-4.405-1.339c-1.57 1.641-3.302 3.434-4.895 5.178 1.29.531 2.55 1.136 3.931 1.726 1.738-1.823 3.54-3.655 5.37-5.566zM29.393 101.912a57 57 0 0 0-3.731-1.39c-1.5 1.553-3.121 3.29-4.602 4.858 1.116.56 2.198 1.158 3.364 1.734 1.63-1.726 3.327-3.423 4.97-5.201zM25.087 100.172c-1.14-.424-2.164-.8-3.22-1.121-1.466 1.449-2.901 2.865-4.309 4.374.944.454 1.856 1.003 2.81 1.605 1.558-1.596 3.105-3.249 4.717-4.858zM108.094 95.19c-4.047-.414-7.942-.727-11.678-1.136-2.763 2.972-5.58 6.016-8.39 9.017 3.604.604 7.203 1.328 11.244 2.146 2.947-3.408 5.864-6.797 8.824-10.028M94.719 93.784c-3.523-.443-6.965-.742-10.056-1.154a308 308 0 0 0-7.898 8.398c3.06.593 6.218 1.192 9.629 1.737 2.707-2.913 5.561-6.019 8.325-8.98M83.129 92.46c-3.213-.309-6.094-.583-8.89-.851-2.42 2.456-4.959 5.09-7.375 7.612 2.688.506 5.467 1.017 8.393 1.637 2.546-2.87 5.232-5.702 7.872-8.398M72.922 91.457c-2.736-.261-5.333-.42-7.813-.65-2.27 2.291-4.685 4.825-6.876 7.079 2.36.398 4.836.693 7.372 1.092 2.316-2.416 4.898-5.05 7.318-7.52zM63.896 90.72c-2.394-.266-4.63-.59-6.876-.68a294 294 0 0 0-6.402 6.539c2.012.347 4.154.745 6.465 1.173 2.222-2.372 4.579-4.746 6.813-7.033M55.98 90.004c-2.09-.2-4.02-.383-5.976-.513-2.059 1.989-4.127 4.034-5.916 5.934 1.715.343 3.552.697 5.58.952a159 159 0 0 1 6.311-6.373zM49.124 89.425c-1.876-.19-3.702-.313-5.339-.49-1.891 1.84-3.754 3.739-5.595 5.573 1.542.36 3.31.545 4.97.79 1.94-1.921 3.864-3.884 5.964-5.871zM42.843 88.964c-1.663-.147-3.212-.295-4.68-.431a177 177 0 0 1-5.008 4.967c1.403.236 2.89.595 4.307.91 1.768-1.836 3.527-3.58 5.381-5.446M37.263 88.436c-1.421-.1-2.691-.266-3.993-.329a292 292 0 0 0-4.67 4.554c1.2.222 2.33.49 3.61.702 1.67-1.635 3.404-3.305 5.053-4.928zM32.524 87.975c-1.223-.148-2.297-.28-3.439-.38-1.482 1.447-2.973 2.847-4.434 4.353 1.004.243 2.083.42 3.204.704 1.528-1.564 3.122-3.14 4.67-4.677M28.605 87.569c-1.032-.17-1.913-.388-2.829-.56-1.34 1.338-2.721 2.696-3.966 3.954.808.24 1.73.472 2.58.756 1.388-1.387 2.842-2.795 4.215-4.15M25.193 86.89c-.803-.159-1.676-.206-2.402-.402-1.27 1.25-2.547 2.49-3.718 3.685.654.22 1.311.46 2.08.667 1.28-1.253 2.665-2.552 4.041-3.95zM16.068 87.643c-.247-.21-.455-.538-.632-.771-.843.892-1.687 1.678-2.39 2.468-.013.387.123.73.293 1.062.925-.915 1.774-1.789 2.728-2.759"/><path d="M32.519 80.359c2.017-.427 4-.856 6.276-1.305.535-.273 1.04-.398 1.684-.639-2.416.59-4.614 1.059-6.74 1.56-.497.336-.829.182-1.22.384M46.255 78.106c2.857-.247 5.748-.24 8.895-.383.59-.055 1.257-.104 1.947-.314-3.287.314-6.298.243-9.203.418-.684.254-1.205.163-1.639.28M103.523 84.043c-3.644-.232-7.26-.36-10.525-.572a313 313 0 0 0-7.726 7.992c3.229.324 6.67.638 10.095 1.035a293 293 0 0 1 8.154-8.456zM91.41 83.38c-3.261-.052-6.357-.118-9.263-.243-2.359 2.42-4.953 4.953-7.238 7.369 2.75.27 5.737.479 8.822.73 2.498-2.637 5.13-5.303 7.679-7.855M80.746 83.126c-2.88-.07-5.585-.066-8.254-.13a156 156 0 0 0-6.723 6.816c2.507.136 5.1.317 7.802.633 2.25-2.404 4.809-4.949 7.177-7.32zM71.249 82.92c-2.542-.053-4.912-.008-7.212-.082a393 393 0 0 0-6.346 6.222c2.167.095 4.433.368 6.86.63 2.213-2.256 4.472-4.587 6.698-6.77M62.928 82.786c-2.28.043-4.263-.064-6.341-.044-2.05 1.977-4.041 3.88-5.972 5.816 1.918.173 3.919.336 6.038.468 2.054-2.098 4.144-4.082 6.275-6.24M55.636 82.672c-2.035-.023-3.879-.03-5.72-.096a415 415 0 0 0-5.547 5.458c1.645.318 3.43.398 5.297.527 2.004-1.988 3.884-3.91 5.971-5.89zM49.057 82.597c-1.718 0-3.464.078-4.954.037-1.723 1.612-3.49 3.337-5.235 4.99 1.5.088 3.042.213 4.672.406 1.761-1.825 3.665-3.614 5.517-5.433M112.653 74.333c-3.833.041-7.532.096-10.988.182-2.522 2.526-5.037 4.956-7.521 7.461 3.4.114 6.975.284 10.566.439 2.691-2.718 5.391-5.474 7.943-8.08zM100.051 74.629c-3.374.01-6.64.158-9.677.258-2.388 2.32-4.793 4.64-7.108 6.945a167 167 0 0 1 9.31.165c2.44-2.563 4.932-4.964 7.475-7.368M88.838 74.912c-2.99.06-5.887.177-8.623.3-2.18 2.095-4.4 4.256-6.622 6.528 2.62.019 5.369.07 8.203.114a402 402 0 0 1 7.04-6.942zM78.959 75.226c-2.721.154-5.071.202-7.553.343-2.205 2.047-4.205 4.013-6.323 6.059 2.365.011 4.771-.014 7.348.036 2.083-2.175 4.307-4.336 6.528-6.438M70.132 75.675c-2.26.044-4.474.107-6.677.237-2.04 1.965-3.993 3.831-5.886 5.668 1.973.1 4.097.114 6.409.063 2.044-2.054 4.09-3.98 6.154-5.968"/><path d="M62.373 75.945c-2.155.148-4.05.23-5.868.302-1.926 1.774-3.896 3.563-5.66 5.296 1.8.03 3.682.089 5.746.037a716 716 0 0 0 5.782-5.635M55.372 76.46c-1.916.16-3.612.248-5.34.35-1.762 1.667-3.604 3.386-5.307 5.106 1.626-.125 3.337-.148 5.123-.22a806 806 0 0 0 5.523-5.234zM108.176 66.525c-3.509.2-6.829.336-10.04.597-2.379 2.268-4.676 4.463-6.999 6.826 3.168-.213 6.336-.236 9.769-.335a277 277 0 0 1 7.268-7.088zM96.53 67.348c-3.142.144-6.03.413-8.944.72-2.214 2.036-4.358 4.111-6.554 6.225 2.83-.237 5.585-.244 8.645-.339 2.306-2.254 4.624-4.547 6.853-6.606M86.241 68.182c-2.766.213-5.33.486-7.928.767-2.102 1.902-4.133 3.884-6.248 5.87 2.504-.254 4.963-.306 7.712-.508 2.062-1.991 4.253-4.046 6.464-6.13M77.049 69.04c-2.448.218-4.752.35-7.04.568a745 745 0 0 0-5.852 5.535c2.202-.114 4.373-.211 6.81-.32 2.083-1.962 4.013-3.87 6.082-5.783M68.872 69.746a84 84 0 0 0-6.24.63c-1.857 1.697-3.718 3.464-5.525 5.156 1.924-.093 3.92-.284 5.97-.336 2-1.87 3.923-3.643 5.795-5.45M56.31 71.696a150 150 0 0 1-5.156.572c-1.642 1.507-3.394 3.105-5.084 4.692 1.607-.144 3.261-.182 4.911-.284 1.678-1.646 3.49-3.308 5.329-4.979zM50.173 72.352c-1.557.136-3.042.236-4.483.417-1.509 1.453-3.03 2.81-4.482 4.23 1.275-.018 2.73-.122 4.119-.166 1.551-1.446 3.234-3.021 4.846-4.48M104.381 60.093c-3.157.372-6.2.73-9.268 1.096-2.173 2.02-4.294 3.98-6.526 6.034 3.01-.39 5.834-.56 9.054-.908 2.2-2.127 4.486-4.13 6.74-6.222M93.703 61.337c-2.81.306-5.633.704-8.317 1.04-1.99 1.877-4.065 3.773-6.143 5.716 2.628-.291 5.166-.495 8.002-.73 2.228-2.088 4.355-4.028 6.458-6.028zM84.102 62.527c-2.495.284-4.942.62-7.452.996-1.911 1.793-3.738 3.435-5.735 5.271 2.285-.218 4.618-.402 7.072-.565a390 390 0 0 1 6.115-5.702M75.558 63.693c-2.215.339-4.43.631-6.532.915-1.827 1.675-3.737 3.356-5.553 5.005 2.086-.213 4.139-.438 6.303-.683a4177 4177 0 0 0 5.782-5.237M62.25 66.05c-1.906.306-3.671.517-5.328.73-1.713 1.567-3.441 3.11-5.064 4.688 1.63-.17 3.299-.338 5.15-.575 1.722-1.6 3.437-3.171 5.242-4.842zM55.692 67.251c-1.687.225-3.19.461-4.723.745a931 931 0 0 0-4.833 4.336c1.439-.188 2.995-.306 4.55-.435a224 224 0 0 1 5.008-4.647zM111.153 52.627c-3.328.522-6.47.987-9.491 1.508-2.17 1.804-4.229 3.66-6.456 5.691 3.045-.465 6.12-.797 9.261-1.203a368 368 0 0 1 6.684-5.997zM100.228 54.286c-2.974.511-5.814.91-8.6 1.392-1.93 1.789-3.953 3.515-6.001 5.389 2.703-.39 5.493-.733 8.315-1.162 2.067-1.877 4.133-3.707 6.286-5.62M107.931 47.638c-3.025.532-5.924 1.117-8.758 1.645-2.04 1.803-4.033 3.533-6.03 5.268 2.675-.458 5.579-.9 8.625-1.418 2.012-1.789 4.112-3.638 6.165-5.495zM140.836 49.53c-4.352.6-8.405 1.158-12.259 1.559-2.564 2.207-4.913 4.472-7.185 6.597 3.742-.313 7.726-.763 11.951-1.217a337 337 0 0 1 7.491-6.937zM23.398 92.364c-.924-.255-1.77-.525-2.578-.742-1.255 1.239-2.552 2.504-3.781 3.895.624.324 1.36.715 2.137 1.07 1.343-1.354 2.787-2.834 4.222-4.224M26.86 93.238c-1.084-.255-2.088-.532-3.053-.782-1.474 1.49-2.881 2.922-4.222 4.282.78.427 1.639.826 2.577 1.235a203 203 0 0 1 4.698-4.736M30.883 94.15c-1.244-.221-2.374-.527-3.464-.838-1.653 1.67-3.244 3.253-4.73 4.799 1.017.329 2.04.715 3.254 1.021 1.632-1.666 3.329-3.341 4.94-4.983M36.019 95.174c-1.454-.314-2.866-.645-4.267-.867-1.65 1.634-3.377 3.466-5.046 5.196 1.262.343 2.492.845 3.765 1.342 1.812-1.947 3.725-3.798 5.548-5.672M41.598 96.096c-1.7-.255-3.39-.51-4.815-.834-1.86 1.844-3.771 3.719-5.62 5.651 1.438.468 2.954.874 4.52 1.316a316 316 0 0 1 5.915-6.133M47.962 97.31a101 101 0 0 1-5.47-1.004 436 436 0 0 0-6.021 6.237c1.574.449 3.278 1.01 5.027 1.537 2.197-2.32 4.229-4.452 6.464-6.772zM55.147 98.818c-2.225-.38-4.293-.808-6.309-1.217-2.156 2.29-4.3 4.495-6.46 6.774 1.848.601 3.822 1.187 5.844 1.778a448 448 0 0 1 6.925-7.336M64.236 100.134c-2.554-.508-5-.89-7.275-1.22-2.334 2.323-4.702 4.867-7.022 7.35 2.152.513 4.474 1.065 6.792 1.829 2.551-2.799 4.98-5.399 7.507-7.959zM73.583 101.787c-2.878-.561-5.713-1.195-8.2-1.685-2.548 2.674-5.128 5.31-7.564 8.043 2.454.749 5.05 1.567 7.885 2.236 2.597-2.885 5.215-5.684 7.879-8.593zM84.693 103.768c-3.333-.579-6.64-1.081-9.495-1.903-2.689 2.963-5.437 5.95-7.987 8.859 2.834.819 5.81 1.652 8.963 2.445a706 706 0 0 1 8.52-9.401zM97.28 106.427c-3.916-.808-7.518-1.531-10.903-2.298-2.906 3.19-5.843 6.377-8.71 9.7 3.531.977 6.79 2.195 10.528 3.149 3.089-3.548 6.142-7.081 9.086-10.551M111.83 109.753a612 612 0 0 1-12.734-2.634c-3.055 3.504-6.102 7.07-9.154 10.556 3.822 1.262 7.87 2.497 12.117 3.762 3.36-4.091 6.553-7.937 9.771-11.684M263.262 89.503c-2.884-2.302-5.707-4.625-8.287-6.745-4.168 2.356-8.318 4.551-12.508 7.04 2.338 2.438 4.654 4.994 7.453 7.609 4.518-2.667 9.034-5.319 13.341-7.904zM121.805 84.778c-1.147-1.154-2.268-2.227-3.434-3.146-1.623 1.135-3.314 2.345-4.984 3.496 1.037 1.092 2.016 2.265 3.068 3.585a341 341 0 0 1 5.351-3.935zM76.402 42.157a27 27 0 0 1-1.234-2.098c-1.46 1.207-3.02 2.514-4.552 3.787.238.817.576 1.563.958 2.363l4.826-4.052zM313.58 160.143c-3.605-2.817-7.004-5.517-10.306-7.893-4.3 1.321-8.519 2.885-12.946 4.377 3.211 2.597 6.37 5.403 9.617 8.427 4.617-1.734 9.341-3.296 13.636-4.912zM86.69 51.297c-.354-.39-.634-.77-.912-1.134-.95.688-1.905 1.364-2.828 2.039.214.417.434.907.682 1.318 1.021-.738 2.004-1.47 3.059-2.225zM119.408 33.489a55 55 0 0 0-2.469-.983 145 145 0 0 0-3.658 2.569c.675.406 1.417.767 2.26 1.234 1.261-.982 2.565-1.9 3.867-2.819zM301.516 66.835a412 412 0 0 0-9.547-3.757c-3.877 1.605-7.548 3.142-11.061 4.772 2.709 1.35 5.562 2.733 8.753 4.433 4.098-1.907 8.08-3.798 11.855-5.448M105.529 31.316c-.517-.243-.904-.562-1.314-.802-.986.643-1.926 1.37-2.875 2.071.347.308.668.672 1.088.953a75 75 0 0 1 3.101-2.222M83.954 26.007c-.274-.2-.574-.352-.844-.536-.71.549-1.489 1.117-2.171 1.64.236.214.44.43.65.678.78-.586 1.588-1.183 2.365-1.782M31.86 80.116c-.116-.295-.268-.59-.348-.874-.567.387-1.097.83-1.665 1.235.043.343.123.667.202.992.64-.454 1.21-.904 1.811-1.353M316.186 112.579c-2.416-1.154-4.371-2.243-6.434-3.286-3.029.856-5.93 1.63-8.821 2.468 1.773 1.069 3.781 2.315 5.906 3.496 3.166-.86 6.268-1.796 9.349-2.678M138.384 27.907c-.848-.25-1.714-.421-2.447-.677-1.18.768-2.426 1.567-3.542 2.307.71.312 1.376.578 2.162.87a122 122 0 0 1 3.827-2.5M107.144 8.906c-.538-.1-1.076-.185-1.605-.212-.887.562-1.732 1.204-2.581 1.82q.755.128 1.516.293c.907-.663 1.789-1.294 2.67-1.9M93.741 32.183c-.489-.154-.97-.264-1.421-.402-.759.546-1.618 1.144-2.415 1.684.454.16.872.309 1.328.472.86-.596 1.652-1.157 2.51-1.754zM11.282 95.16c-.138-.225-.241-.402-.381-.627-.448.306-.895.616-1.306.904.1.231.166.45.305.638.45-.291.936-.605 1.382-.915M82.222 44.72c-.49-.16-.947-.344-1.396-.462-.715.485-1.501 1.005-2.256 1.488.454.16.908.329 1.33.52.75-.51 1.537-1.023 2.322-1.546M158.28 51.426c-1.061-.277-2.079-.56-3.056-.82-1.288.692-2.541 1.351-3.899 2.076 1.005.23 1.991.543 2.976.834 1.28-.714 2.682-1.423 3.979-2.09M7.856 90.302c-.131-.23-.302-.427-.435-.604-.44.28-.845.572-1.252.9.131.194.266.398.397.626.444-.314.886-.627 1.29-.922M70.384 55.694c-.454-.16-.911-.369-1.328-.536-.703.468-1.335.897-2.005 1.353.381.177.766.377 1.187.59.703-.486 1.41-.91 2.146-1.409zM76.14 37.093c-.397-.103-.785-.142-1.18-.215-.578.393-1.184.833-1.766 1.203.325.07.72.171 1.052.284.64-.443 1.25-.87 1.894-1.27zM367.532 138.469c-3.224-.969-6.633-2.12-10.079-3.119-3.192.683-6.64 1.169-9.881 1.766 3.099.947 6.454 2.057 9.554 3.158 3.622-.609 6.972-1.169 10.406-1.803zM119.741 14.7c-.711.028-1.351.035-1.991.04-.751.477-1.533.974-2.342 1.507.638-.03 1.221.024 1.864.018.808-.531 1.618-1.068 2.467-1.565zM16.702 93.11a4.4 4.4 0 0 1-.578-.484c-.405.259-.849.554-1.219.79.143.173.322.32.502.506.443-.3.852-.55 1.295-.811zM208.291 75.886c-1.606-.39-3.325-.624-4.963-.978-1.613.56-3.081 1.051-4.524 1.627 1.486.273 3.096.657 4.776 1.04 1.57-.579 3.182-1.135 4.709-1.689zM202.811 104.999c-1.448-.904-2.881-1.803-4.322-2.586-2.018.775-4.075 1.685-6.146 2.564 1.341.892 2.673 1.762 4.02 2.776 2.245-1.017 4.371-1.87 6.448-2.755zM12.127 100.477c-.138-.398-.239-.804-.34-1.15-.567.405-1.173.855-1.78 1.323.06.406.122.867.218 1.283.61-.479 1.257-.967 1.902-1.457zM167.744 69.048c-1.306-.744-2.51-1.409-3.627-2.057a375 375 0 0 0-5.298 2.99c1.125.69 2.13 1.52 3.383 2.232 1.902-1.067 3.717-2.127 5.542-3.165"/></g><defs><clipPath id="a"><path fill="#fff" d="M0 0h367.532v200H0z"/></clipPath></defs></svg>