<svg xmlns="http://www.w3.org/2000/svg" width="300" height="200" fill="none" viewBox="0 0 300 200"><g stroke="#666" stroke-miterlimit="10" clip-path="url(#a)" style="mix-blend-mode:color-dodge"><path d="M.132 199.797c99.741-.423 199.507-.611 299.248 0M.132 195.82c28.875-1.931 58.194-2.589 87.109-1.065 11.81.622 23.653.929 35.467.275 12.884-.714 25.149-3.562 37.861-5.302 22.607-3.095 45.53 4.177 68.041 5.39 23.713 1.28 46.998-2.047 70.77.985" vector-effect="non-scaling-stroke"/><path d="M.132 191.376c29.992-3.315 61.078-3.921 91.143-.945 12.054 1.192 24.207 1.823 36.281.558 14.248-1.488 26.613-6.969 40.323-10.315 22.898-5.589 45.505 7.982 67.985 10.187 9.867.97 19.635-1.148 29.478-1.783 11.639-.754 22.743.447 34.038 3.331" vector-effect="non-scaling-stroke"/><path d="M.132 186.557c30.914-4.479 62.698-3.929 93.637.224 12.173 1.631 24.354 2.529 36.556.638 6.348-.985 12.54-2.641 18.597-4.775 8.235-2.9 15.828-8.229 23.996-10.893 22.922-7.48 44.676 11.603 66.413 15.014 9.975 1.563 19.076-1.68 28.904-2.8 10.944-1.249 20.911.889 31.149 4.754" vector-effect="non-scaling-stroke"/><path d="M.132 181.436c30.264-5.302 61.182-3.642 91.338 1.723 13.088 2.329 26.195 3.865 39.362 1.193 16.718-3.395 29.047-13.443 44.352-19.865 24.822-10.415 44.588 14.85 67.742 18.692 9.141 1.516 16.678-2.354 25.428-4.041 11.232-2.166 20.936 1.021 31.026 5.892" vector-effect="non-scaling-stroke"/><path d="M.132 176.094c30.288-6.214 59.997-2.536 89.838 4.193 13.127 2.96 26.29 4.579 39.533 1.304 6.875-1.699 13.37-4.471 19.643-7.726 9.388-4.871 17.695-13.008 27.115-17.36 25.321-11.7 43.388 17.802 65.911 22.701 10.25 2.23 17.069-2.669 26.521-5.074 11.236-2.856 21.032 1.751 30.687 7.204" vector-effect="non-scaling-stroke"/><path d="M.132 170.618c29.69-7.049 56.92-1.165 85.689 6.665 13.358 3.634 26.708 5.832 40.31 2.062 7.198-1.994 13.897-5.281 20.329-9.026 10.079-5.868 18.773-15.222 28.92-20.543 26.649-13.973 42.453 20.287 65.483 25.744 10.825 2.565 17.165-3.315 26.805-6.35 11.667-3.674 22.037 2.429 31.708 8.472" vector-effect="non-scaling-stroke"/><path d="M.132 165.081c28.353-7.81 52.432-.096 79.3 8.736 13.327 4.38 26.618 7.658 40.507 4.068 21.131-5.46 34.904-22.078 52.664-33.275 28.839-18.178 41.691 22.302 66.852 27.456 10.892 2.233 17.053-4.711 26.681-8.066 12.193-4.248 23.449 3.403 33.244 9.94" vector-effect="non-scaling-stroke"/><path d="M.132 159.572c27.51-8.883 48.634 1.101 73.898 10.998 13.642 5.341 27.439 9.673 41.975 5.257 21.55-6.546 35.594-24.376 53.41-36.778 30.288-21.081 40.231 23.966 66.245 29.263 11.073 2.254 17.907-5.453 27.388-9.214 13.39-5.314 25.683 3.729 36.332 11.161" vector-effect="non-scaling-stroke"/><path d="M.132 154.163c12.325-4.695 24.355-5.776 37.102-1.986 11.771 3.498 21.878 10.563 32.986 15.561 13.119 5.903 26.597 11.081 40.953 6.378 22.803-7.471 36.528-27.759 55.137-41.217 30.133-21.796 38.899 24.663 63.637 30.93 12.524 3.171 19.782-6.024 30.431-10.228 14.392-5.684 27.838 4.926 39.002 12.964" vector-effect="non-scaling-stroke"/><path d="M.132 148.942c11.092-5.022 22.144-6.586 33.859-2.661 11.539 3.866 20.911 12.003 31.54 17.635 12.365 6.554 25.09 13.132 39.318 8.935 23.856-7.028 38.83-29.813 57.344-44.556 31.569-25.142 36.807 25.418 62.67 31.237 13.271 2.988 21.534-7.674 32.93-11.831 15.329-5.588 30.032 6.622 41.583 15.166" vector-effect="non-scaling-stroke"/><path d="M.132 143.984c25.635-13.762 41.033 2.517 61.912 15.672 11.859 7.471 24.626 16.115 39.158 11.305 23.533-7.791 39.014-31.214 56.853-46.79 11.515-10.052 22.54-12.386 32.403.331 8.554 11.025 14.049 26.905 29.27 30.1 13.255 2.78 22.616-8.133 33.987-12.581 16.734-6.55 33.3 7.771 45.665 17.156" vector-effect="non-scaling-stroke"/><path d="M.132 139.373c24.83-15.601 40.302.598 59.885 15.301 10.446 7.842 22.272 18.704 36.385 15.022 8.59-2.241 16.207-8.612 22.767-14.236 12.608-10.806 23.074-23.555 35.044-34.971 11.475-10.946 22.787-15.254 32.626-.814 7.334 10.762 12.959 27.388 27.702 29.738 14.017 2.233 24.275-9.789 36.569-13.946 17.731-5.999 35.606 10.124 48.27 20.009" vector-effect="non-scaling-stroke"/><path d="M.132 135.192c9.68-6.96 20.36-11.328 32.155-7.088 10.502 3.777 18.665 12.553 26.737 19.865 9.097 8.241 20.588 22.872 34.553 19.996 7.86-1.619 14.775-7.635 20.648-12.756 12.964-11.309 24.327-24.409 35.982-37.01 10.909-11.799 22.998-20.287 33.173-3.865 6.85 11.053 12.169 28.537 27.706 29.151 13.789.547 24.151-10.463 36.58-14.523 19.064-6.227 38.404 12.074 51.718 22.824" vector-effect="non-scaling-stroke"/><path d="M.132 131.355c9.935-7.739 21.003-12.876 33.551-8.417 10.59 3.762 19.36 12.338 27.188 20.049 8.14 8.021 19.064 23.777 32.39 21.089 7.458-1.504 14.018-7.531 19.516-12.422 12.572-11.188 23.8-23.945 35.16-36.323 10.401-11.332 22.619-21.663 32.937-5.317 6.751 10.694 11.878 27.763 27.124 27.974 13.669.188 25.069-9.732 37.833-13.131 19.866-5.293 39.281 12.058 53.549 23.144" vector-effect="non-scaling-stroke"/><path d="M.132 127.079c10.96-8.62 22.655-13.255 36.053-7.272 11.08 4.95 20.784 14.316 29.358 22.609 7.693 7.443 17.225 20.004 29.355 16.091 7.401-2.389 13.837-8.771 19.359-13.901 11.068-10.279 21.355-21.412 31.796-32.318 9.951-10.399 22.025-20.515 32.722-6.015 7.609 10.315 12.453 26.813 27.643 27.567 13.53.67 26.613-8.253 39.656-10.646 19.727-3.622 38.073 9.972 53.31 20.447" vector-effect="non-scaling-stroke"/><path d="M.132 122.328c11.786-8.991 23.796-12.944 37.565-5.844 10.55 5.437 20.285 14.193 28.964 22.183 8.087 7.447 18.018 20.279 30.24 14.599 6.38-2.964 11.631-8.608 16.642-13.383 10.541-10.052 20.512-20.71 30.807-31.01 10.649-10.654 22.715-18.915 33.763-4.75 7.605 9.752 13.083 25.106 27.503 25.744 13.266.59 26.445-5.764 39.393-7.878 19.986-3.263 37.729 6.925 54.375 16.741" vector-effect="non-scaling-stroke"/><path d="M.132 117.19c13.594-9.805 26.561-12.022 41.037-2.9 10.402 6.554 20.017 15.433 29.326 23.439 7.772 6.685 16.515 17.18 27.391 11.101 5.826-3.255 10.673-9.059 15.314-13.754 9.879-10 19.499-20.243 29.665-29.956 10.534-10.064 22.592-17.328 33.803-4.611 8.371 9.493 14.169 24.635 28.553 26.007 12.676 1.209 26.489-3.745 38.958-5.676 19.926-3.083 37.458 3.957 55.197 12.553" vector-effect="non-scaling-stroke"/><path d="M.132 111.761c14.727-9.904 28.269-10.965 43.028-.602 11.136 7.818 21.143 17.699 31.732 26.267 7.282 5.888 15.338 13.961 24.439 7.196 6.017-4.472 10.928-11.209 15.924-16.698 8.446-9.274 17.105-18.424 26.397-26.857 11.388-10.335 23.737-15.218 35.204-2.76 8.395 9.118 14.827 23.351 28.62 24.895 13.055 1.459 27.172-1.967 40.103-3.742 19.017-2.609 35.942 1.639 53.801 8.249" vector-effect="non-scaling-stroke"/><path d="M.132 106.125c16.79-10.495 31.062-9.378 46.475 2.924 11.695 9.334 21.662 20.196 33.851 29.003 8.363 6.039 14.392 9.45 22.025 1.033 12.971-14.304 23.477-30.607 38.675-42.94 11.156-9.051 23.429-12.426 34.545-1.891 9.392 8.899 15.712 22.561 29.27 25.768 12.517 2.956 28.226.04 40.81-1.675 18.573-2.533 35.335-1.045 53.601 3.454" vector-effect="non-scaling-stroke"/><path d="M.132 100.377c18.8-10.966 34.11-7.403 49.962 6.634 11.356 10.056 20.8 21.699 33.688 29.96 9.46 6.067 14.44 7.14 20.911-2.521 10.254-15.305 20.577-30.95 35.515-42.238 12.078-9.131 24.315-11.181 36.117-.654 9.828 8.767 16.822 22.872 30.719 25.975 12.325 2.753 26.709 1.444 39.134-.247 18.039-2.457 34.984-3.566 53.206-1.536" vector-effect="non-scaling-stroke"/><path d="M.132 94.609c20.492-11.309 36.524-5.736 52.767 9.737 11.495 10.949 20.972 24.324 35.124 32.087 10.506 5.764 14.192 2.768 19.204-7.113 7.972-15.712 18.054-31.592 32.821-41.827 12.501-8.668 25.145-8.935 36.888 1.025 10.242 8.692 17.703 22.43 31.425 26.283 29.43 8.265 61.458-4.089 91.023-5.114" vector-effect="non-scaling-stroke"/><path d="M.132 88.909c10.194-5.43 19.778-8.652 31.185-4.7 9.437 3.272 17.165 10.137 24.088 17.129 11.42 11.544 21.183 27.077 36.397 33.938 11.411 5.146 14.112-1.787 17.962-11.46 6.277-15.78 15.753-31.947 30.56-41.186 32.271-20.14 43.917 20.611 69.593 29.446 29.985 10.32 60.145-2.7 89.467-8.376" vector-effect="non-scaling-stroke"/><path d="M.132 83.368c10.633-5.624 20.432-8.76 32.047-4.487 9.744 3.582 17.62 10.901 24.678 18.317 11.1 11.659 22.58 31.843 39.138 36.486 11.591 3.251 13.418-7.591 16.355-16.318 5.139-15.278 13.997-32.123 28.816-40.204 30.762-16.778 46.255 20.945 69.481 31.608 30.472 13.989 59.978-.355 88.733-10.878" vector-effect="non-scaling-stroke"/><path d="M.132 78.083c10.737-5.84 20.408-9.011 32.227-4.875 9.8 3.43 17.807 11.086 24.774 18.545 11.303 12.106 23.42 35.102 40.997 38.533 11.946 2.333 13.621-9.598 16.231-18.557 4.481-15.369 12.548-32.382 28.034-39.53 30.806-14.22 47.42 21.995 70.143 33.707 11.831 6.095 27.148 9.218 40.327 7.096 16.706-2.689 31.984-12.585 46.519-20.615" vector-effect="non-scaling-stroke"/><path d="M.132 73.137c11.435-6.61 22.487-10.42 35.147-4.707 9.5 4.288 17.038 12.17 23.849 19.82 10.206 11.465 23.07 35.618 40.239 37.429 12.923 1.364 14.555-12.745 17.324-22.271 4.281-14.723 11.99-30.507 27.507-36.187 30.575-11.197 48.255 22.378 70.315 35.497 11.148 6.63 25.72 11.169 38.759 9.546 17.468-2.178 32.586-14.815 46.104-25.007" vector-effect="non-scaling-stroke"/><path d="M.132 68.625c10.797-6.877 21.426-11.663 34.182-6.514 10.222 4.129 18.362 12.893 25.384 21.082 10.039 11.707 22.663 35.744 40.498 36.167 12.717.299 15.071-14.013 18.071-23.57 4.64-14.767 11.978-29.091 28.253-33.268 31.166-8.001 48.47 22.697 70.77 37.424 10.917 7.212 25.477 13.16 38.775 11.241 17.392-2.513 31.365-16.965 43.315-28.557" vector-effect="non-scaling-stroke"/><path d="M.132 64.64c9.91-7.184 20.205-13.203 32.81-8.983 9.823 3.287 17.56 11.337 24.17 18.972 10.83 12.5 21.722 34.739 40.363 36.159 14.173 1.077 17.855-12.693 21.933-23.586 5.562-14.863 13.315-27.448 30.348-29.75 30.196-4.08 47.597 21.876 68.576 38.214 10.517 8.189 24.758 16.031 38.519 14.691 18.254-1.779 31.689-18.748 42.529-31.755" vector-effect="non-scaling-stroke"/><path d="M.132 61.497c9.863-6.88 20.033-12.545 32.386-8.524 9.62 3.131 17.277 10.826 23.809 18.229 10.521 11.919 21.657 34.799 39.764 35.426 14.001.482 18.793-11.915 23.812-22.813 6.436-13.965 15.146-26.75 31.664-28.98 29.139-3.932 47.342 20.316 68.022 35.825 10.146 7.607 24.458 15.345 37.49 15.09 18.218-.359 31.712-17.683 42.301-30.328" vector-effect="non-scaling-stroke"/><path d="M.132 59.347c9.707-6.642 19.73-12.15 31.84-8.488 9.356 2.828 16.901 10.032 23.33 17.084 10.353 11.365 21.441 34.006 38.961 34.113 13.738.084 19.587-10.846 25.584-21.492 7.326-13.004 16.942-25.481 32.874-27.667 28.085-3.85 47.057 17.898 67.749 32.374 10.047 7.028 24.204 14.871 36.636 15.98 18.127 1.615 31.841-15.88 42.27-28.07" vector-effect="non-scaling-stroke"/><path d="M.132 58.015c9.312-6.363 19.267-11.863 30.898-8.912 9.915 2.514 17.791 10.009 24.542 17.265C65.836 77.397 76.126 97.884 93.27 97.122c12.971-.574 19.583-10.419 26.358-20.108 8.319-11.903 18.362-23.064 33.595-25.226 27.663-3.929 47.042 14.87 68.564 28.281 9.943 6.2 22.56 13.55 34.015 16.515 18.569 4.802 32.71-12.594 43.578-24.88" vector-effect="non-scaling-stroke"/><path d="M.132 57.329c9.057-6.267 18.8-11.887 30.24-9.562 9.524 1.939 17.264 8.608 23.9 15.306 10.406 10.499 20.093 29.354 36.704 28.616 12.6-.558 20.177-8.847 27.886-17.778 9.236-10.699 19.898-20.863 34.545-22.992 26.493-3.854 46.794 11.176 68.568 23.135 10.805 5.936 22.168 13.192 33.512 17.994 18.262 7.735 32.618-9.003 43.889-21.213" vector-effect="non-scaling-stroke"/><path d="M.132 57.117C19.188 43.611 35.67 43.68 52.975 59.694 63.6 69.527 72.63 86.404 88.657 85.829c12.19-.438 20.665-7.156 29.255-15.042 10.123-9.29 21.275-18.277 35.339-20.367 25.245-3.754 46.619 7.116 68.588 17.427 12.094 5.677 21.877 12.797 33.141 19.702 17.787 10.901 32.307-4.664 44.404-17.129" vector-effect="non-scaling-stroke"/><path d="M.132 57.209C17.867 44.221 34.19 41.7 51.754 56.156 62.66 65.13 71.058 79.834 86.435 79.53c25.604-.503 41.372-25.573 66.397-29.355 23.972-3.621 46.492 2.8 68.54 11.31 13.478 5.2 21.965 12.568 32.898 21.555 17.149 14.097 31.724.307 45.11-12.764" vector-effect="non-scaling-stroke"/><path d="M.132 57.432c16.219-12.357 32.414-17.59 50.13-5.349 10.952 7.567 18.984 20.212 33.137 20.699 25.448.881 44.384-19.047 68.807-22.857 22.284-3.474 46.1-1.547 67.598 4.899 15.306 4.59 23.122 12.94 33.911 24.085 4.03 4.164 8.563 8.5 14.615 9.154 12.042 1.297 23.306-10.634 31.05-17.798" vector-effect="non-scaling-stroke"/><path d="M.132 57.616c15.09-11.959 31.21-19.558 49.32-9.546 11.204 6.195 18.996 16.71 32.359 17.488 24.861 1.448 45.805-11.871 69.721-15.585 21.454-3.33 45.765-6.107 67.191-1.512 16.482 3.535 23.896 13.391 33.887 25.988 3.826 4.827 8.159 10.38 14.483 11.895 12.218 2.928 24.271-9.107 32.283-16.123" vector-effect="non-scaling-stroke"/><path d="M.132 57.584C14.859 45.458 31.226 36.072 50.186 44.16c10.338 4.412 18.03 12.497 29.534 13.622 24.722 2.422 47.201-4.148 71.341-7.69 12.72-1.867 25.252-3.718 37.865-6.259 9.803-1.974 19.331-3 29.298-1.572 17.221 2.466 24.495 14.767 33.424 28.17 3.575 5.365 7.872 12.027 14.368 14.16 12.449 4.094 24.866-7.554 33.364-14.626" vector-effect="non-scaling-stroke"/><path d="M.132 57.169C14.316 45.115 30.69 33.946 50.078 39.111c10.278 2.74 18.574 9.115 29.255 10.463 24.367 3.072 46.942 3.77 71.289.38 12.891-1.796 24.977-4.44 37.274-8.7 9.469-3.28 18.554-5.968 28.704-5.25 18.075 1.276 25.416 15.808 33.576 29.92 3.475 6.012 7.673 13.746 14.408 16.67 12.688 5.509 25.763-6.067 34.804-13.235" vector-effect="non-scaling-stroke"/><path d="M.132 56.2c13.985-12.166 30.296-24.592 49.914-22.71 10.534 1.01 20.174 5.988 30.631 7.528 23.904 3.522 44.932 11.56 69.486 8.564 12.991-1.587 24.666-4.978 36.373-10.778 8.818-4.368 17.22-8.787 27.323-8.915 19.639-.24 27.056 16.909 34.964 32.035 3.416 6.534 7.521 15.034 14.48 18.536 12.912 6.502 26.525-4.95 36.077-12.238" vector-effect="non-scaling-stroke"/><path d="M.132 54.504C14.404 41.944 30.759 28.708 50.569 27.4c10.681-.706 21.925 2.469 32.319 4.623 23.377 4.842 42.84 19.573 67.666 16.893 12.764-1.376 24.036-5.529 34.737-12.533 8.634-5.653 16.546-11.712 27.267-12.338 20.066-1.169 27.416 18.748 34.737 33.862 3.479 7.176 7.473 15.856 14.647 20.104 12.884 7.627 27.739-4.424 37.438-11.604" vector-effect="non-scaling-stroke"/><path d="M.132 51.904c24.422-21.445 50.162-37.979 83.41-29.945 23.669 5.72 41.899 27.966 67.579 25.868 13.011-1.065 23.971-6.286 33.871-14.555 7.752-6.474 14.659-13.575 25.236-14.72 20.174-2.181 27.567 18.218 34.482 33.312 3.774 8.237 7.86 18.54 16.051 23.447 13.207 7.91 28.545-4.245 38.615-11.568" vector-effect="non-scaling-stroke"/><path d="M.132 48.37c23.5-20.073 53.733-42.275 86.61-33.068 23.078 6.462 40.515 31.07 65.879 29.769 12.684-.65 23.461-6.726 32.414-15.334 7.103-6.825 13.451-14.523 23.896-15.68 19.352-2.15 27.228 17.986 34.047 32.302 4.082 8.564 8.359 19.047 16.754 24.317 13.442 8.436 28.967-3.084 39.644-10.52" vector-effect="non-scaling-stroke"/><path d="M.132 44.676c23.585-19.219 54.547-40.44 86.906-32.47 23.784 5.856 42.624 30.276 68.376 28.604 11.671-.757 21.45-6.426 29.645-14.42 6.54-6.378 12.274-13.645 21.822-15.205 19.044-3.111 28.452 17.531 35.842 31.221 4.245 7.858 8.849 16.965 16.554 22.035 13.474 8.867 28.636-.95 40.103-8.329" vector-effect="non-scaling-stroke"/><path d="M.132 40.982c24.031-18.54 56.502-39.043 88.621-30.874 23.354 5.94 43.343 28.23 68.544 26.861 10.745-.582 20.154-6.306 27.667-13.59 6.021-5.836 11.379-12.788 20.029-14.62 18.745-3.964 29.526 16.838 37.69 29.826 4.907 7.806 10.039 16.398 18.465 20.814 13.335 6.984 26.598-.726 38.232-7.631" vector-effect="non-scaling-stroke"/><path d="M.132 37.288C24.933 19.326 58.194.463 90.282 8.408c23.129 5.729 43.969 26.367 68.783 24.672 9.995-.682 18.537-5.704 25.679-12.417 6.005-5.645 11.4-12.526 19.978-14.11 17.823-3.294 29.434 16.24 38.132 28.342 4.992 6.945 10.282 14.029 17.891 18.237 13.239 7.316 26.582.619 38.635-5.955" vector-effect="non-scaling-stroke"/><path d="M.132 33.595C25.105 16.78 57.328.55 88.642 6.45c24.235 4.567 46.136 24.815 71.588 23.032 9.652-.678 17.871-5.6 24.901-11.927 5.75-5.177 10.973-11.145 18.941-12.649 16.494-3.115 28.775 13.71 37.841 24.704 5.933 7.2 12.416 15.102 21.294 18.783 12.553 5.206 24.91-.355 36.177-5.995" vector-effect="non-scaling-stroke"/><path d="M.132 29.9C25.727 14.08 58.617-.434 89.639 5.498c23.649 4.523 46.627 22.49 71.361 20.666 17.963-1.324 25.803-18.927 41.994-22.493 16.279-3.582 29.534 12.27 39.541 22.53 6.017 6.17 12.297 12.652 20.421 16.003 12.576 5.185 24.782.586 36.42-4.72" vector-effect="non-scaling-stroke"/><path d="M.132 26.207C26.402 11.524 58.669-.395 89.4 4.547c23.84 3.834 47.241 20.12 71.927 18.274 16.957-1.269 26.023-17.085 41.675-20.152 15.262-2.988 28.393 9.597 38.875 18.791 6.472 5.68 13.131 11.64 21.282 14.795 12.485 4.835 24.427 1.125 36.225-3.753" vector-effect="non-scaling-stroke"/><path d="M.132 22.513C26.797 9.303 58.705-.455 88.88 3.845c23.856 3.399 47.812 17.488 72.294 15.713 16.272-1.181 26.797-14.903 42.163-17.695 15.157-2.757 28.963 8.616 40.298 16.925 6.157 4.511 12.573 9.075 19.835 11.643 12.516 4.428 23.939 1.508 35.909-2.928" vector-effect="non-scaling-stroke"/><path d="M.132 18.82C27.08 7.3 58.54-.415 88.122 3.239c23.897 2.952 48.076 14.731 72.427 13.12 15.98-1.058 28.197-12.534 43.614-15.035 14.229-2.305 27.643 6.279 39.286 13.268 18.924 11.36 34.541 14.946 55.931 7.945" vector-effect="non-scaling-stroke"/><path d="M.132 15.126C27.24 5.501 57.08.199 85.948 2.636c24.395 2.063 48.654 11.692 73.3 10.456 16.531-.83 30.695-10.619 46.966-12.278 13.443-1.372 26.131 4.735 37.957 10.32 18.968 8.962 34.605 12.345 55.209 6.54" vector-effect="non-scaling-stroke"/><path d="M.132 11.432C27.726 3.782 57.188.22 85.84 2.25c23.911 1.695 47.915 8.815 71.987 7.782 16.905-.726 32.682-7.914 49.456-9.39 14.116-1.24 27.371 3.682 40.498 8.221 17.632 6.1 33.169 8.37 51.598 4.109" vector-effect="non-scaling-stroke"/><path d="M.132 7.742C27.323 2.477 55.492.4 83.187 1.635c24.116 1.077 48.203 5.8 72.386 5.162 18.514-.487 36.577-5.42 55.05-6.382 13.183-.686 25.927 2.35 38.683 5.297 16.989 3.925 32.738 5.752 50.074 2.764" vector-effect="non-scaling-stroke"/><path d="M.132 4.049c26.976-2.793 54.227-3.65 81.344-3.04 23.84.539 47.668 2.912 71.528 2.593 20.293-.271 40.482-2.808 60.767-3.31 28.772-.715 56.75 6.864 85.609 3.96" vector-effect="non-scaling-stroke"/><path d="M.132.355c99.745-.55 199.503.602 299.248 0" vector-effect="non-scaling-stroke"/></g><defs><clipPath id="a"><path fill="#fff" d="M0 0h299.532v200H0z"/></clipPath></defs></svg>
