<svg viewBox="0 0 144 144" fill="currentColor" xmlns="http://www.w3.org/2000/svg">
<text x="94" y="132" rotate="180">✨</text>
<path d="M67.6371 129.685L66.0601 140.071L62.6252 139.549C61.9081 139.44 61.2561 139.202 60.6693 138.835C60.0817 138.472 59.5869 138.015 59.185 137.464C58.7823 136.917 58.4951 136.309 58.3234 135.64C58.146 134.976 58.1117 134.285 58.2206 133.568C58.3295 132.851 58.5676 132.199 58.935 131.612C59.2967 131.029 59.7514 130.534 60.299 130.126C60.8459 129.724 61.4541 129.434 62.1235 129.257C62.7922 129.086 63.4851 129.054 64.2022 129.163L67.6371 129.685ZM65.8597 130.993L63.9679 130.706C63.4635 130.63 62.9793 130.652 62.5156 130.774C62.0468 130.895 61.6188 131.098 61.2314 131.384C60.8391 131.668 60.5155 132.016 60.2608 132.428C60.006 132.839 59.8403 133.298 59.7637 133.802C59.6871 134.306 59.7094 134.793 59.8305 135.262C59.9516 135.731 60.1572 136.159 60.4474 136.547C60.7327 136.934 61.0811 137.256 61.4928 137.51C61.8995 137.764 62.3551 137.93 62.8595 138.006L64.7513 138.293L65.8597 130.993Z"/>
<path d="M50.691 133.649L49.2204 133.126L51.7341 126.056L53.2047 126.579L50.691 133.649ZM49.5771 134.408C49.8033 134.488 49.9659 134.628 50.0648 134.828C50.1636 135.028 50.1737 135.238 50.0949 135.46C50.0179 135.677 49.8779 135.831 49.6751 135.924C49.4707 136.021 49.2577 136.03 49.0362 135.951C48.8193 135.874 48.6623 135.733 48.5651 135.529C48.4662 135.329 48.4553 135.121 48.5324 134.904C48.6112 134.683 48.752 134.526 48.9547 134.433C49.1528 134.339 49.3602 134.33 49.5771 134.408Z"/>
<path d="M44.51 122.626C44.8454 122.836 45.1458 123.09 45.4111 123.388C45.6765 123.686 45.8796 124.004 46.0205 124.342C46.1546 124.682 46.208 125.024 46.1808 125.368L44.7415 125.236C44.7487 125.086 44.713 124.916 44.6344 124.725C44.5513 124.532 44.4333 124.346 44.2804 124.166C44.1251 123.991 43.9419 123.846 43.7309 123.731C43.5242 123.619 43.3174 123.544 43.1105 123.506C42.8969 123.47 42.6995 123.482 42.5183 123.543C42.3372 123.604 42.2001 123.72 42.1071 123.892C42.0021 124.085 41.9869 124.271 42.0616 124.448C42.1295 124.627 42.2446 124.797 42.4071 124.96C42.5695 125.122 42.7332 125.282 42.898 125.439C43.2764 125.77 43.6006 126.117 43.8705 126.479C44.1336 126.844 44.2991 127.216 44.367 127.594C44.4325 127.977 44.3603 128.361 44.1503 128.748C43.9213 129.17 43.6089 129.473 43.2133 129.657C42.8153 129.845 42.3862 129.923 41.9262 129.889C41.4618 129.854 41.0186 129.721 40.5965 129.492C40.0688 129.206 39.646 128.831 39.328 128.369C39.01 127.906 38.8406 127.415 38.8199 126.898L40.2589 126.842C40.2532 127.009 40.2878 127.182 40.3624 127.359C40.4371 127.536 40.5412 127.701 40.6749 127.853C40.8062 128.01 40.9596 128.141 41.1351 128.248C41.3546 128.378 41.5778 128.465 41.8046 128.509C42.0247 128.554 42.2265 128.544 42.41 128.479C42.5935 128.413 42.739 128.281 42.8463 128.084C42.9513 127.89 42.9619 127.708 42.8781 127.537C42.7919 127.371 42.6609 127.203 42.4853 127.034C42.3053 126.862 42.1244 126.682 41.9427 126.492C41.6182 126.156 41.3334 125.806 41.0882 125.439C40.8407 125.077 40.6818 124.709 40.6115 124.335C40.5412 123.961 40.6118 123.59 40.8234 123.221C41.0477 122.808 41.3698 122.513 41.7899 122.337C42.2055 122.158 42.6553 122.095 43.1393 122.147C43.6233 122.199 44.0802 122.359 44.51 122.626Z"/>
<path d="M32.2059 116.842L31.6194 115.366C32.185 115.219 32.7609 115.204 33.3469 115.321C33.9291 115.436 34.4545 115.688 34.9232 116.079C35.4534 116.521 35.8237 117.061 36.0342 117.699C36.2408 118.334 36.2841 118.989 36.1641 119.664C36.037 120.34 35.7412 120.956 35.2766 121.513C34.9241 121.936 34.5208 122.267 34.0666 122.507C33.6092 122.751 33.1345 122.902 32.6426 122.961C32.1436 123.02 31.6536 122.983 31.1726 122.849C30.6917 122.715 30.2533 122.483 29.8576 122.153C29.3889 121.762 29.0461 121.29 28.8292 120.738C28.6084 120.183 28.5212 119.612 28.5676 119.025L30.1248 119.337C30.126 119.664 30.1925 119.967 30.3243 120.246C30.453 120.529 30.6306 120.765 30.8573 120.954C31.1723 121.217 31.5306 121.369 31.9322 121.411C32.3267 121.454 32.7159 121.397 33.0996 121.241C33.4763 121.087 33.8024 120.844 34.0779 120.514C34.3503 120.187 34.5285 119.821 34.6125 119.416C34.6934 119.014 34.6775 118.623 34.565 118.243C34.4485 117.859 34.2347 117.537 33.9235 117.278C33.6854 117.079 33.4138 116.944 33.109 116.872C32.8041 116.8 32.5031 116.79 32.2059 116.842Z"/>
<path d="M26.4495 107.323C26.8708 107.87 27.1148 108.478 27.1815 109.146C27.2452 109.811 27.145 110.459 26.8811 111.092C26.6101 111.724 26.1873 112.261 25.6128 112.704C25.1768 113.04 24.7111 113.276 24.2156 113.411C23.7161 113.55 23.2199 113.594 22.7269 113.544C22.227 113.494 21.7569 113.351 21.3165 113.116C20.8762 112.88 20.4988 112.558 20.1844 112.15C19.763 111.603 19.5205 110.998 19.4569 110.333C19.3902 109.664 19.4923 109.014 19.7632 108.382C20.0312 107.747 20.4544 107.206 21.033 106.76C21.4649 106.427 21.9286 106.193 22.4242 106.057C22.9197 105.922 23.4175 105.88 23.9174 105.93C24.4103 105.98 24.877 106.122 25.3173 106.358C25.7545 106.589 26.1319 106.911 26.4495 107.323ZM25.2131 108.276C24.9597 107.947 24.645 107.719 24.2692 107.591C23.8933 107.464 23.5047 107.435 23.1033 107.505C22.695 107.573 22.3224 107.737 21.9856 107.996C21.6408 108.262 21.3848 108.585 21.2177 108.967C21.0475 109.344 20.9779 109.729 21.009 110.122C21.0362 110.518 21.1734 110.877 21.4207 111.198C21.6711 111.522 21.9857 111.751 22.3647 111.882C22.7405 112.009 23.1327 112.038 23.541 111.97C23.9463 111.898 24.3194 111.73 24.6602 111.468C25.0128 111.196 25.2708 110.871 25.434 110.493C25.5972 110.114 25.6632 109.729 25.6321 109.336C25.594 108.942 25.4543 108.589 25.2131 108.276Z"/>
<path d="M19.0501 95.4112L19.8985 97.2262L14.2471 102.891L13.5416 101.382L17.8445 97.0847L11.7844 97.6232L11.0821 96.1209L19.0501 95.4112Z"/>
<path d="M15.6879 84.7001C15.8373 85.3741 15.8003 86.0279 15.5769 86.6615C15.3525 87.2903 14.9864 87.8351 14.4788 88.296C13.9653 88.7531 13.3544 89.0602 12.6462 89.2171C12.109 89.3362 11.5872 89.3519 11.081 89.2642C10.57 89.1777 10.1018 89.0073 9.67655 88.7531C9.24533 88.4951 8.88035 88.1661 8.5816 87.766C8.28286 87.3659 8.07775 86.9144 7.96626 86.4113C7.84179 85.8497 7.84481 85.3084 7.97534 84.7876C8.10098 84.2679 8.33213 83.7965 8.66878 83.3734C9.00055 82.9515 9.4153 82.6034 9.91303 82.3291C10.4059 82.0559 10.9572 81.885 11.5672 81.8165L12.819 87.4649C13.1419 87.3267 13.4201 87.1369 13.6535 86.8956C13.881 86.6505 14.0415 86.369 14.135 86.0511C14.2275 85.7283 14.2371 85.3905 14.1641 85.0378C14.0818 84.6666 13.9144 84.3502 13.6617 84.0885C13.4079 83.8219 13.0957 83.6272 12.7252 83.5044L12.7416 81.879C13.4561 82.0281 14.0864 82.3521 14.6325 82.8511C15.1738 83.3511 15.5256 83.9675 15.6879 84.7001ZM11.6655 87.7743L10.7433 83.6131C10.4025 83.7399 10.1126 83.9348 9.8737 84.1978C9.62883 84.457 9.45639 84.754 9.35635 85.0887C9.25036 85.4196 9.23632 85.7609 9.31425 86.1126C9.3911 86.4594 9.54557 86.7633 9.77765 87.0244C10.0087 87.2807 10.2899 87.4745 10.6213 87.606C10.9468 87.7337 11.2949 87.7898 11.6655 87.7743Z"/>
<path d="M14.1002 75.0423L6.59787 75.1932L6.56648 73.6327L7.36172 73.6167C7.04639 73.3629 6.79488 73.0477 6.60718 72.6712C6.41948 72.2947 6.3212 71.8864 6.31235 71.4463C6.30671 71.1662 6.33864 70.8879 6.40813 70.6113L7.99614 71.2023C7.92504 71.3988 7.89145 71.5946 7.89537 71.7897C7.90201 72.1198 7.99063 72.4207 8.16121 72.6925C8.32679 72.9644 8.54878 73.1801 8.82719 73.3396C9.10559 73.4991 9.41235 73.5755 9.74745 73.5687L14.0688 73.4818L14.1002 75.0423Z"/>
<path d="M7.89341 47.752L8.48279 46.0106L12.7916 51.2556L17.2837 52.776L16.7834 54.2544L12.2913 52.734L5.68503 54.2769L6.27441 52.5355L10.928 51.4488L7.89341 47.752Z"/>
<path d="M22.8266 41.6049C22.4601 42.1899 21.975 42.6297 21.3712 42.9245C20.7701 43.2149 20.127 43.3463 19.4419 43.3185C18.7553 43.2838 18.1046 43.0739 17.4899 42.6888C17.0236 42.3966 16.6409 42.0417 16.3417 41.6241C16.0383 41.2038 15.8243 40.7539 15.6997 40.2744C15.5735 39.788 15.5443 39.2975 15.6122 38.8028C15.6801 38.3081 15.8508 37.8425 16.1244 37.4058C16.4909 36.8208 16.9747 36.3831 17.5758 36.0926C18.1796 35.7979 18.8248 35.6679 19.5115 35.7026C20.2008 35.733 20.8549 35.9421 21.4738 36.3299C21.9359 36.6194 22.3165 36.973 22.6157 37.3906C22.9148 37.8082 23.1275 38.2603 23.2537 38.7467C23.3783 39.2262 23.4067 39.7132 23.3388 40.2079C23.2736 40.6983 23.1029 41.164 22.8266 41.6049ZM21.504 40.7762C21.7244 40.4244 21.829 40.0501 21.8178 39.6534C21.8066 39.2568 21.6988 38.8823 21.4945 38.53C21.2886 38.1708 21.0055 37.8783 20.6452 37.6525C20.2764 37.4215 19.8841 37.2938 19.4684 37.2695C19.0553 37.2409 18.67 37.3094 18.3124 37.475C17.9506 37.6379 17.6622 37.8911 17.447 38.2345C17.2292 38.5821 17.1246 38.9564 17.1332 39.3572C17.1444 39.7539 17.253 40.1318 17.4589 40.491C17.6674 40.846 17.954 41.1377 18.3186 41.3661C18.6959 41.6025 19.0902 41.7315 19.5017 41.7532C19.9132 41.7748 20.2977 41.7029 20.6553 41.5373C21.0113 41.3648 21.2942 41.1111 21.504 40.7762Z"/>
<path d="M26.1993 31.8233L22.8615 28.5288L23.9579 27.418L27.0233 30.4437C27.2619 30.6791 27.537 30.8348 27.8488 30.9105C28.1606 30.9863 28.4719 30.9843 28.7827 30.9045C29.0899 30.8211 29.3594 30.6619 29.5914 30.4269C29.8268 30.1884 29.9825 29.9168 30.0583 29.6121C30.1341 29.3003 30.1303 28.9908 30.0469 28.6836C29.9671 28.3728 29.8079 28.0997 29.5694 27.8642L26.5039 24.8385L27.6003 23.7277L32.9461 28.9936L31.8497 30.1045L31.2676 29.5405C31.3091 29.94 31.2604 30.3382 31.1215 30.7353C30.9826 31.1324 30.7603 31.4858 30.4546 31.7956C30.0645 32.1908 29.6134 32.4555 29.1014 32.5897C28.5893 32.7239 28.0764 32.7273 27.5627 32.5998C27.0489 32.4722 26.5945 32.2134 26.1993 31.8233Z"/>
<path d="M37.4992 25.3334L33.256 19.1445L34.5432 18.262L34.993 18.918C35.0322 18.5151 35.1576 18.1319 35.3694 17.7683C35.5811 17.4048 35.8685 17.0986 36.2316 16.8496C36.4626 16.6912 36.7128 16.5652 36.9822 16.4715L37.3596 18.1233C37.1562 18.1718 36.9741 18.2511 36.8132 18.3615C36.5409 18.5482 36.338 18.7874 36.2044 19.0791C36.068 19.3667 36.0095 19.6707 36.0289 19.991C36.0484 20.3112 36.1528 20.6096 36.3424 20.886L38.7865 24.4508L37.4992 25.3334Z"/>
<path d="M53.3063 16.932L50.733 6.74674L54.1014 5.89569C54.8047 5.71801 55.498 5.68473 56.1813 5.79587C56.8635 5.90215 57.4968 6.1317 58.0813 6.48452C58.6645 6.8325 59.1649 7.28138 59.5824 7.83117C60.0036 8.37489 60.303 8.99839 60.4807 9.70166C60.6584 10.4049 60.6917 11.0982 60.5805 11.7816C60.473 12.4589 60.2459 13.0916 59.8991 13.6797C59.5512 14.2629 59.1029 14.7658 58.5543 15.1881C58.0045 15.6057 57.378 15.9033 56.6747 16.081L53.3063 16.932ZM54.4372 15.0364L56.2924 14.5677C56.7871 14.4427 57.2246 14.2342 57.6048 13.942C57.9899 13.6487 58.3057 13.2954 58.5522 12.8823C58.8035 12.4679 58.9668 12.0216 59.0421 11.5434C59.1173 11.0652 59.0924 10.5787 58.9675 10.084C58.8425 9.58927 58.6333 9.14936 58.3399 8.76427C58.0466 8.37917 57.6909 8.064 57.2729 7.81874C56.8598 7.57226 56.4141 7.4114 55.9358 7.33615C55.4625 7.25968 54.9784 7.28394 54.4837 7.40893L52.6285 7.87765L54.4372 15.0364Z"/>
<path d="M67.7854 14.1713L67.5201 6.67222L69.0799 6.61706L69.1081 7.41196C69.3571 7.0928 69.6684 6.83652 70.042 6.6431C70.4155 6.44968 70.8223 6.34519 71.2623 6.32963C71.5422 6.31973 71.821 6.34741 72.0986 6.41268L71.5319 8.00951C71.3343 7.94141 71.138 7.91081 70.943 7.91771C70.613 7.92938 70.3135 8.02257 70.0444 8.19727C69.7751 8.36698 69.5628 8.59223 69.4075 8.87304C69.2523 9.15384 69.1806 9.46172 69.1924 9.79668L69.3452 14.1162L67.7854 14.1713Z"/>
<path d="M80.7937 14.9577C80.1124 14.8459 79.5192 14.5686 79.0139 14.1258C78.5136 13.6838 78.1438 13.1415 77.9045 12.499C77.6709 11.8523 77.6129 11.1711 77.7303 10.4553C77.8194 9.91229 77.9987 9.42209 78.2682 8.98471C78.5385 8.54239 78.8706 8.17105 79.2646 7.8707C79.6643 7.56622 80.1054 7.34964 80.5879 7.22095C81.0703 7.09226 81.5658 7.06962 82.0742 7.15305C82.6419 7.24619 83.1433 7.45012 83.5783 7.76483C84.0141 8.07461 84.3659 8.46436 84.6335 8.93411C84.902 9.39892 85.0711 9.91332 85.1407 10.4773C85.2112 11.0364 85.165 11.6118 85.002 12.2035L79.2929 11.2668C79.3012 11.6179 79.374 11.9467 79.5113 12.2531C79.6543 12.5554 79.856 12.809 80.1164 13.014C80.3818 13.2197 80.6918 13.3543 81.0464 13.4175C81.4215 13.4791 81.7776 13.4412 82.1144 13.3038C82.4562 13.1672 82.7529 12.9498 83.0047 12.6514L84.5075 13.2706C84.1036 13.8786 83.5686 14.3433 82.9024 14.6649C82.2371 14.9816 81.5341 15.0792 80.7937 14.9577ZM79.4342 10.0809L83.6402 10.771C83.6491 10.4075 83.5759 10.066 83.4205 9.74643C83.2708 9.42277 83.0592 9.15232 82.7856 8.93507C82.5177 8.71369 82.2061 8.57385 81.8507 8.51553C81.5002 8.45802 81.1606 8.48849 80.8319 8.60692C80.5082 8.72617 80.2237 8.91522 79.9785 9.17407C79.739 9.4288 79.5575 9.73109 79.4342 10.0809Z"/>
<path d="M98.5964 12.2526L100.041 12.8444L97.1955 19.7879L95.7443 19.1933L96.1013 18.1637C95.7516 18.4367 95.3585 18.6108 94.9222 18.6861C94.4859 18.7614 94.0317 18.7023 93.5595 18.5089C93.0503 18.3002 92.6101 18.009 92.2388 17.6352C91.8695 17.2568 91.5837 16.8262 91.3815 16.3433C91.184 15.8623 91.0814 15.3607 91.0737 14.8385C91.0679 14.3117 91.1702 13.7914 91.3808 13.2776C91.5837 12.7823 91.8669 12.355 92.2304 11.9958C92.5957 11.6319 93.0101 11.353 93.4734 11.159C93.9367 10.965 94.4216 10.8636 94.9279 10.8549C95.4408 10.8434 95.9449 10.9391 96.4402 11.142C96.9448 11.3488 97.3418 11.6466 97.6311 12.0355C97.927 12.4216 98.1292 12.8451 98.2378 13.3058L98.5964 12.2526ZM94.0967 17.099C94.504 17.2659 94.9012 17.3124 95.2883 17.2386C95.6773 17.1601 96.0253 16.9837 96.3323 16.7094C96.6439 16.4371 96.8851 16.0926 97.0558 15.676C97.2284 15.2547 97.2992 14.8378 97.2683 14.425C97.2374 14.0123 97.11 13.6438 96.886 13.3196C96.6686 12.9926 96.3562 12.7457 95.9488 12.5788C95.5461 12.4138 95.1364 12.3648 94.7196 12.4319C94.3029 12.499 93.9271 12.664 93.5924 12.9269C93.2576 13.1898 93.0048 13.5295 92.8341 13.9461C92.6615 14.3674 92.6046 14.79 92.6632 15.2141C92.7285 15.6355 92.8837 16.0154 93.1289 16.3537C93.3806 16.6893 93.7032 16.9378 94.0967 17.099Z"/>
<path d="M102.254 22.3737L106.798 16.4023L108.04 17.3475L107.559 17.9805C107.953 17.8912 108.355 17.8885 108.762 17.9724C109.174 18.0593 109.555 18.2361 109.905 18.5027C110.331 18.8269 110.644 19.2288 110.845 19.7084C111.049 20.1841 111.128 20.6714 111.081 21.1704C111.55 20.9925 112.036 20.9354 112.541 20.999C113.053 21.0616 113.522 21.255 113.948 21.5791C114.39 21.9154 114.71 22.3289 114.909 22.8195C115.107 23.3102 115.176 23.8184 115.115 24.3443C115.055 24.8701 114.856 25.354 114.52 25.7959L111.671 29.5399L110.429 28.5947L113.037 25.1672C113.237 24.9044 113.357 24.6151 113.396 24.2992C113.435 23.9833 113.399 23.6759 113.287 23.377C113.175 23.078 112.987 22.8286 112.725 22.6286C112.462 22.4287 112.175 22.3106 111.863 22.2744C111.551 22.2382 111.248 22.2811 110.954 22.4031C110.66 22.5251 110.407 22.7255 110.195 23.0041L107.586 26.4317L106.344 25.4865L108.953 22.0589C109.165 21.7803 109.29 21.483 109.33 21.1671C109.369 20.8512 109.328 20.5462 109.205 20.2522C109.087 19.9613 108.897 19.7158 108.634 19.5158C108.376 19.3189 108.085 19.2048 107.763 19.1736C107.445 19.1453 107.139 19.1922 106.845 19.3142C106.551 19.4362 106.304 19.6286 106.104 19.8913L103.496 23.3189L102.254 22.3737Z"/>
<path d="M120.242 40.0975L129.336 34.8381L131.146 37.9691C131.429 38.4584 131.564 38.9702 131.549 39.5046C131.537 40.0432 131.393 40.5484 131.117 41.0202C130.843 41.4963 130.457 41.8784 129.959 42.1664C129.453 42.4594 128.923 42.6036 128.372 42.599C127.827 42.5963 127.318 42.4658 126.845 42.2076C126.372 41.9495 125.998 41.5822 125.723 41.1059L124.693 39.3261L121.023 41.4486L120.242 40.0975ZM126.044 38.5447L126.995 40.1881C127.145 40.4479 127.346 40.6464 127.599 40.7834C127.854 40.9248 128.126 40.9957 128.416 40.9961C128.707 41.0007 128.989 40.9242 129.262 40.7664C129.535 40.6086 129.742 40.4022 129.884 40.147C130.032 39.8937 130.106 39.6225 130.106 39.3333C130.114 39.046 130.042 38.7724 129.892 38.5126L128.941 36.8692L126.044 38.5447Z"/>
<path d="M125.8 51.0402L132.891 48.5844L133.401 50.0592L132.65 50.3195C133.028 50.4638 133.364 50.6861 133.659 50.9864C133.954 51.2867 134.173 51.6449 134.317 52.0609C134.409 52.3256 134.464 52.6002 134.483 52.8848L132.79 52.812C132.798 52.6031 132.769 52.4064 132.705 52.2221C132.597 51.9101 132.42 51.6511 132.174 51.4452C131.933 51.2376 131.655 51.1008 131.341 51.0348C131.027 50.9689 130.712 50.9908 130.395 51.1005L126.311 52.515L125.8 51.0402Z"/>
<path d="M128.87 63.7044C128.776 63.0204 128.867 62.3719 129.142 61.7588C129.418 61.1508 129.827 60.638 130.371 60.2206C130.921 59.8074 131.555 59.5519 132.274 59.4539C132.819 59.3796 133.34 59.407 133.837 59.5362C134.34 59.6646 134.792 59.8731 135.195 60.1615C135.603 60.4542 135.94 60.8122 136.205 61.2356C136.469 61.659 136.637 62.1259 136.706 62.6365C136.799 63.3205 136.708 63.9665 136.433 64.5746C136.158 65.1876 135.745 65.7007 135.196 66.1139C134.647 66.532 134.011 66.7904 133.287 66.889C132.747 66.9626 132.228 66.9349 131.731 66.8057C131.233 66.6766 130.781 66.4657 130.372 66.173C129.969 65.8845 129.636 65.5286 129.371 65.1053C129.107 64.6869 128.94 64.2199 128.87 63.7044ZM130.416 63.4937C130.472 63.9051 130.631 64.2595 130.894 64.5569C131.157 64.8543 131.479 65.0729 131.862 65.2126C132.25 65.3566 132.655 65.3999 133.076 65.3425C133.507 65.2837 133.89 65.1306 134.225 64.883C134.561 64.6404 134.813 64.341 134.981 63.9848C135.155 63.6279 135.214 63.2487 135.16 62.8472C135.104 62.4408 134.945 62.0864 134.681 61.784C134.419 61.4866 134.093 61.2658 133.705 61.1218C133.318 60.9828 132.911 60.9423 132.484 61.0004C132.043 61.0605 131.658 61.214 131.328 61.4609C130.998 61.7079 130.749 62.0094 130.58 62.3656C130.417 62.7261 130.363 63.1021 130.416 63.4937Z"/>
<path d="M125.864 74.6487L126.005 73.0944L137.215 74.1152L137.073 75.6695L135.974 75.5695C136.335 75.8535 136.618 76.2007 136.821 76.6111C137.025 77.0215 137.103 77.4907 137.055 78.0188C137.005 78.5618 136.857 79.0607 136.61 79.5153C136.362 79.975 136.04 80.3676 135.643 80.6932C135.252 81.0192 134.81 81.2628 134.319 81.424C133.827 81.5851 133.309 81.641 132.766 81.5915C132.223 81.5421 131.722 81.3935 131.262 81.1456C130.803 80.8978 130.407 80.578 130.076 80.1862C129.75 79.7948 129.507 79.3507 129.346 78.8538C129.185 78.362 129.129 77.8445 129.179 77.3015C129.227 76.7734 129.388 76.3259 129.662 75.9591C129.942 75.5928 130.282 75.3023 130.684 75.0877L125.864 74.6487ZM135.554 77.867C135.594 77.4336 135.519 77.0425 135.33 76.6937C135.14 76.345 134.87 76.0616 134.518 75.8437C134.171 75.6263 133.773 75.4971 133.325 75.4563C132.877 75.4155 132.46 75.4704 132.074 75.6212C131.689 75.7719 131.371 76.0018 131.122 76.3106C130.873 76.6194 130.729 76.9906 130.689 77.424C130.65 77.8524 130.722 78.2558 130.903 78.634C131.09 79.0126 131.358 79.3259 131.707 79.5737C132.056 79.8215 132.457 79.966 132.911 80.0073C133.354 80.0477 133.77 79.9775 134.158 79.7969C134.546 79.6212 134.865 79.364 135.117 79.0253C135.369 78.6866 135.515 78.3005 135.554 77.867Z"/>
<path d="M126.695 89.4583C126.91 88.8023 127.275 88.2588 127.79 87.8277C128.304 87.4013 128.897 87.1194 129.568 86.9818C130.243 86.8505 130.925 86.8979 131.615 87.1241C132.137 87.2956 132.594 87.5482 132.985 87.8818C133.38 88.2169 133.696 88.6022 133.932 89.0377C134.172 89.4795 134.318 89.9487 134.371 90.4452C134.424 90.9417 134.37 91.4347 134.209 91.9243C134.03 92.4709 133.751 92.9349 133.373 93.3163C133 93.6993 132.561 93.9869 132.056 94.1791C131.555 94.3729 131.021 94.4608 130.453 94.4429C129.89 94.4265 129.328 94.2923 128.768 94.0402L130.572 88.5432C130.224 88.4974 129.888 88.5187 129.564 88.6072C129.243 88.7021 128.962 88.8624 128.719 89.0881C128.475 89.3187 128.295 89.6043 128.178 89.9449C128.059 90.3062 128.042 90.6638 128.126 91.0177C128.208 91.3765 128.377 91.7031 128.633 91.9978L127.79 93.3875C127.252 92.8949 126.875 92.2947 126.659 91.587C126.449 90.8808 126.461 90.1713 126.695 89.4583ZM131.722 88.8653L130.393 92.915C130.751 92.9798 131.1 92.9599 131.44 92.8555C131.782 92.7574 132.082 92.5899 132.339 92.353C132.599 92.1224 132.785 91.836 132.897 91.4938C133.008 91.1563 133.03 90.8161 132.964 90.4731C132.896 90.1349 132.753 89.8247 132.535 89.5425C132.32 89.2667 132.049 89.041 131.722 88.8653Z"/>
<path d="M123.138 98.5778L129.669 102.274L128.9 103.632L128.208 103.241C128.349 103.62 128.405 104.019 128.374 104.439C128.344 104.858 128.22 105.26 128.003 105.643C127.865 105.887 127.696 106.11 127.495 106.312L126.431 104.994C126.592 104.861 126.721 104.71 126.817 104.54C126.979 104.253 127.057 103.949 127.049 103.628C127.045 103.31 126.964 103.011 126.806 102.732C126.648 102.452 126.423 102.23 126.131 102.065L122.37 99.9361L123.138 98.5778Z"/>
<path d="M119.989 113.684L120.985 112.463L116.387 108.699L117.374 107.49L121.972 111.255L122.727 110.33L123.936 111.318L123.181 112.242L125.011 113.726L124.024 114.935L122.194 113.451L121.197 114.671L119.989 113.684Z"/>
<path d="M112.232 123.212L110.952 124.278L106.901 113.001L108.175 111.939L109.535 115.69L116.41 119.727L115.101 120.818L110.305 117.832L112.232 123.212Z"/>
</svg>
