<svg viewBox="0 0 806 284" fill="none" xmlns="http://www.w3.org/2000/svg">
<style>
  .stroke-color { stroke: var(--stroke-color); }
  .fill-base { fill: var(--fill-base); }
  .fill-accent { fill: var(--fill-accent); }
  .fill-stroke-color { fill: var(--stroke-color); }
</style>

<!-- Main house body -->
<path class="stroke-color" d="M528.593 50.5164C540.273 46.006 553.276 45.9998 564.961 50.4988V50.4978L695.034 101.131L695.048 101.136L695.062 101.141C696.198 101.545 697.179 102.273 697.88 103.224C698.537 104.116 698.92 105.167 698.99 106.256L699 106.474V270.939C699 276.996 693.381 282.128 686.209 282.129H407.791C400.62 282.129 395 276.996 395 270.939V106.469C395.03 105.305 395.419 104.173 396.118 103.222C396.818 102.271 397.797 101.543 398.932 101.138L398.959 101.129L528.592 50.5154L528.593 50.5164Z" fill="none" stroke-width="2"/>

<!-- Tree 1 -->
<path class="fill-base" d="M258.496 213.847C287.066 213.847 310.227 184.874 310.227 149.134C310.227 113.394 287.066 84.4211 258.496 84.4211C229.926 84.4211 206.766 113.394 206.766 149.134C206.766 184.874 229.926 213.847 258.496 213.847Z"/>
<path class="fill-stroke-color" d="M258.641 136.122H258.783L261.342 282.699H255.941L258.641 136.122Z"/>
<path class="fill-stroke-color" d="M267.463 233.161C267.622 233.461 267.654 233.811 267.553 234.135C267.453 234.459 267.228 234.729 266.928 234.887L259.508 238.791L258.316 236.529L265.736 232.625C266.036 232.467 266.387 232.435 266.711 232.535C267.035 232.636 267.305 232.861 267.463 233.161Z"/>

<!-- Tree 2 -->
<path class="fill-base" d="M109.774 213.847C138.344 213.847 161.504 184.874 161.504 149.134C161.504 113.394 138.344 84.4211 109.774 84.4211C81.2036 84.4211 58.043 113.394 58.043 149.134C58.043 184.874 81.2036 213.847 109.774 213.847Z"/>
<path class="fill-stroke-color" d="M118.738 235.584C118.58 235.284 118.309 235.059 117.985 234.959C117.661 234.858 117.311 234.89 117.011 235.048L111.831 237.774L110.057 136.121H109.915L107.215 282.699H112.615L111.881 240.637L118.202 237.311C118.503 237.152 118.728 236.882 118.828 236.558C118.929 236.234 118.896 235.884 118.738 235.584Z"/>

<!-- Person -->
<path class="fill-accent" d="M183.955 0C220.157 0 249.581 68.1716 249.581 113.458C249.581 158.744 220.234 195.456 184.033 195.456C147.831 195.456 118.484 158.744 118.484 113.458C118.484 68.1716 147.754 0 183.955 0Z"/>
<path class="fill-stroke-color" d="M195.394 222.999C195.295 222.811 195.16 222.644 194.996 222.508C194.832 222.372 194.644 222.27 194.44 222.207C194.237 222.144 194.023 222.121 193.812 222.141C193.6 222.16 193.394 222.221 193.205 222.32L186.642 225.774L184.394 96.9692H184.214L180.793 282.699H187.636L186.706 229.401L194.715 225.187C194.904 225.088 195.071 224.953 195.207 224.789C195.343 224.625 195.445 224.437 195.508 224.233C195.571 224.03 195.594 223.817 195.574 223.605C195.554 223.393 195.493 223.187 195.394 222.999Z"/>

<!-- House windows top -->
<path class="stroke-color" d="M429.344 142.236H473.382C475.393 142.236 477.321 143.035 478.743 144.456C480.165 145.877 480.964 147.804 480.964 149.813V166.255H421.762V149.813L421.771 149.438C421.864 147.565 422.65 145.788 423.982 144.456C425.315 143.124 427.094 142.339 428.968 142.246L429.344 142.236Z" fill="none" stroke-width="2"/>
<path class="stroke-color" d="M480.964 170.993V197.021C480.964 199.03 480.165 200.957 478.743 202.378C477.321 203.799 475.393 204.598 473.382 204.598H429.344C427.333 204.598 425.404 203.799 423.982 202.378C422.561 200.957 421.762 199.03 421.762 197.021V170.993H480.964Z" fill="none" stroke-width="2"/>

<!-- House roof -->
<path class="stroke-color" d="M532.865 32.6267C540.679 29.764 549.255 29.764 557.069 32.6267L701.979 85.7146C705.332 86.9433 708.227 89.172 710.272 92.0984C712.318 95.025 713.415 98.5091 713.415 102.079C713.415 104.884 712.738 107.647 711.44 110.135C710.143 112.622 708.263 114.761 705.962 116.367C703.661 117.973 701.005 119.001 698.222 119.362C695.438 119.723 692.608 119.408 689.973 118.442L557.758 70.0037C549.5 66.9782 540.435 66.9782 532.177 70.0037L399.962 118.442C397.326 119.408 394.496 119.723 391.713 119.362C388.929 119.001 386.274 117.973 383.973 116.367C381.671 114.761 379.792 112.622 378.494 110.135C377.197 107.647 376.52 104.884 376.52 102.079C376.52 98.5091 377.617 95.025 379.662 92.0984C381.708 89.1719 384.603 86.9433 387.957 85.7146L532.865 32.6267Z" fill="none" stroke-width="2"/>

<!-- House door -->
<path class="stroke-color" d="M566.312 171.151L566.64 171.156C570.007 171.243 573.217 172.617 575.604 175.003C578.069 177.466 579.455 180.805 579.459 184.288V269.815C579.455 273.297 578.068 276.635 575.604 279.098C573.14 281.561 569.798 282.946 566.312 282.95H530.979C527.493 282.946 524.151 281.561 521.687 279.098C519.299 276.712 517.924 273.504 517.837 270.139L517.832 269.813V184.288C517.836 180.805 519.222 177.466 521.687 175.003C524.074 172.617 527.284 171.243 530.651 171.156L530.979 171.151H566.312ZM579.034 184.286C579.03 180.916 577.689 177.684 575.305 175.301C572.92 172.918 569.687 171.578 566.315 171.574H530.976C527.604 171.578 524.371 172.918 521.986 175.301C519.602 177.684 518.261 180.916 518.257 184.286V269.816C518.261 273.186 519.602 276.417 521.986 278.8C524.371 281.183 527.604 282.524 530.976 282.528H566.315C569.687 282.524 572.92 281.183 575.305 278.8C577.689 276.417 579.03 273.186 579.034 269.816V184.286Z" fill="none" stroke-width="2"/>

<!-- House door handle -->
<path class="stroke-color" d="M569.657 220.748C571.88 220.748 573.681 222.549 573.681 224.769C573.68 226.989 571.88 228.79 569.657 228.79C567.434 228.79 565.633 226.989 565.633 224.769C565.633 222.549 567.434 220.748 569.657 220.748Z" fill="none" stroke-width="2"/>

<!-- Window divider lines -->
<path class="stroke-color" d="M421.216 197.872H481.505C483.071 197.872 484.573 198.494 485.68 199.601C486.787 200.707 487.408 202.207 487.408 203.771C487.408 205.336 486.787 206.836 485.68 207.942C484.573 209.049 483.071 209.671 481.505 209.671H421.216C419.65 209.671 418.148 209.049 417.041 207.942C415.934 206.836 415.313 205.336 415.312 203.771C415.313 202.207 415.934 200.707 417.041 199.601C418.148 198.494 419.65 197.872 421.216 197.872Z" fill="none" stroke-width="2"/>

<!-- House windows right side -->
<path class="stroke-color" d="M668.679 170.993V197.021C668.679 199.03 667.88 200.957 666.458 202.378C665.036 203.799 663.108 204.598 661.097 204.598H617.059C615.048 204.598 613.119 203.799 611.697 202.378C610.275 200.957 609.477 199.03 609.477 197.021V170.993H668.679Z" fill="none" stroke-width="2"/>
<path class="stroke-color" d="M617.059 142.236H661.097C663.108 142.236 665.036 143.035 666.458 144.456C667.88 145.877 668.679 147.804 668.679 149.813V166.255H609.477V149.813L609.486 149.438C609.579 147.565 610.364 145.788 611.697 144.456C613.03 143.124 614.808 142.339 616.683 142.246L617.059 142.236Z" fill="none" stroke-width="2"/>
<path class="stroke-color" d="M608.478 197.064H668.767C670.547 197.064 672.254 197.771 673.513 199.029C674.771 200.287 675.478 201.993 675.479 203.771C675.479 205.55 674.771 207.257 673.513 208.514C672.254 209.772 670.547 210.478 668.767 210.478H608.478C606.697 210.478 604.99 209.772 603.731 208.514C602.473 207.257 601.766 205.55 601.766 203.771C601.766 201.993 602.473 200.287 603.731 199.029C604.99 197.771 606.697 197.064 608.478 197.064Z" fill="none" stroke-width="2"/>

<!-- Sign post -->
<path class="stroke-color" d="M400.899 228L381.109 197.236L382.025 196.647L400.803 225.84L416.105 196.689L417.068 197.194L400.899 228Z"/>

<!-- Sign -->
<path class="fill-base" d="M417.013 186.151H369.937V185.335C369.937 184.014 369.676 182.705 369.17 181.484C368.664 180.264 367.922 179.154 366.988 178.22C366.053 177.286 364.943 176.544 363.721 176.039C362.5 175.533 361.19 175.273 359.868 175.273C358.546 175.273 357.237 175.533 356.015 176.039C354.794 176.544 353.684 177.286 352.749 178.22C351.814 179.154 351.072 180.264 350.566 181.484C350.06 182.705 349.8 184.014 349.8 185.335V186.151H345.174C342.504 186.151 339.943 187.211 338.054 189.098C336.166 190.985 335.105 193.545 335.105 196.213C335.105 198.882 336.166 201.441 338.054 203.329C339.943 205.216 342.504 206.276 345.174 206.276H349.8V282.319C369.862 281.917 349.655 282.725 369.937 282.319V206.276H417.013C419.683 206.276 422.244 205.216 424.132 203.329C426.02 201.441 427.081 198.882 427.081 196.213C427.081 193.545 426.02 190.985 424.132 189.098C422.244 187.211 419.683 186.151 417.013 186.151Z"/>
<path class="fill-accent" d="M359.595 200.749C361.699 200.749 363.404 199.044 363.404 196.941C363.404 194.839 361.699 193.134 359.595 193.134C357.491 193.134 355.785 194.839 355.785 196.941C355.785 199.044 357.491 200.749 359.595 200.749Z"/>

<!-- Mailbox -->
<path class="fill-base" d="M422.993 247.385H379.462C377.406 247.383 375.435 246.566 373.981 245.113C372.527 243.66 371.709 241.69 371.707 239.635V225.501C371.709 223.446 372.527 221.476 373.981 220.023C375.435 218.57 377.406 217.753 379.462 217.75H422.993C425.049 217.753 427.021 218.57 428.474 220.023C429.928 221.476 430.746 223.446 430.748 225.501V239.635C430.746 241.69 429.928 243.66 428.474 245.113C427.021 246.566 425.049 247.383 422.993 247.385Z"/>
<path class="fill-accent" d="M414.835 230.032H387.079C385.426 230.032 384.086 231.372 384.086 233.024C384.086 234.676 385.426 236.016 387.079 236.016H414.835C416.488 236.016 417.829 234.676 417.829 233.024C417.829 231.372 416.488 230.032 414.835 230.032Z"/>

<!-- Ground line -->
<mask id="path-22-inside-1_695_191" fill="white">
<path d="M805.375 283.129H0.624848C0.459127 283.129 0.300198 283.063 0.183016 282.946C0.0658333 282.829 0 282.67 0 282.504C0 282.339 0.0658333 282.18 0.183016 282.063C0.300198 281.945 0.459127 281.88 0.624848 281.88H805.375C805.541 281.88 805.7 281.945 805.817 282.063C805.934 282.18 806 282.339 806 282.504C806 282.67 805.934 282.829 805.817 282.946C805.7 283.063 805.541 283.129 805.375 283.129Z"/>
</mask>
<path class="fill-stroke-color" d="M0.624848 283.129V285.129V283.129ZM805.375 281.88L805.375 283.88L805.375 281.88ZM805.375 283.129V281.129H0.624848V283.129V285.129H805.375V283.129ZM0.624848 283.129L0.624848 281.129C0.9893 281.129 1.33892 281.273 1.59681 281.531L0.183016 282.946L-1.23078 284.36C-0.738519 284.852 -0.0710458 285.129 0.624848 285.129L0.624848 283.129ZM0.183016 282.946L1.59681 281.531C1.85482 281.789 2 282.139 2 282.504H0H-2C-2 283.201 -1.72315 283.868 -1.23078 284.36L0.183016 282.946ZM0 282.504H2C2 282.869 1.85482 283.219 1.59681 283.477L0.183016 282.063L-1.23078 280.648C-1.72315 281.14 -2 281.808 -2 282.504H0ZM0.183016 282.063L1.59681 283.477C1.33892 283.735 0.9893 283.88 0.624848 283.88V281.88V279.88C-0.0710458 279.88 -0.738519 280.156 -1.23078 280.648L0.183016 282.063ZM0.624848 281.88V283.88H805.375V281.88V279.88H0.624848V281.88ZM805.375 281.88L805.375 283.88C805.011 283.88 804.661 283.735 804.403 283.477L805.817 282.063L807.231 280.648C806.738 280.156 806.071 279.88 805.375 279.88L805.375 281.88ZM805.817 282.063L804.403 283.477C804.145 283.219 804 282.869 804 282.504H806H808C808 281.808 807.723 281.14 807.231 280.648L805.817 282.063ZM806 282.504H804C804 282.139 804.145 281.789 804.403 281.531L805.817 282.946L807.231 284.36C807.723 283.868 808 283.201 808 282.504H806ZM805.817 282.946L804.403 281.531C804.661 281.273 805.011 281.129 805.375 281.129V283.129V285.129C806.071 285.129 806.738 284.852 807.231 284.36L805.817 282.946Z" mask="url(#path-22-inside-1_695_191)"/>
</svg>
